<svg version="1" xmlns="http://www.w3.org/2000/svg" xmlns:xlink="http://www.w3.org/1999/xlink" width="35" height="35" viewBox="0 0 35 35"><defs><path id="a" d="M1.5 1.5h32v32h-32z"/></defs><defs><path id="c" d="M17.5 33.5c8.837 0 16-7.163 16-16 0-8.836-7.163-16-16-16-8.836 0-16 7.164-16 16 0 8.837 7.164 16 16 16zm0 0"/></defs><defs><path id="e" d="M1.5-758.5h612v792H1.5z"/></defs><clipPath id="b"><use xlink:href="#a" overflow="visible"/></clipPath><clipPath id="d" clip-path="url(#b)"><use xlink:href="#c" overflow="visible"/></clipPath><clipPath id="f" clip-path="url(#d)"><use xlink:href="#e" overflow="visible"/></clipPath><path clip-path="url(#f)" stroke="#868686" stroke-width="8" stroke-miterlimit="10" d="M17.5 33.5c8.837 0 16-7.163 16-16 0-8.836-7.163-16-16-16-8.836 0-16 7.164-16 16 0 8.837 7.164 16 16 16zm0 0" fill="none"/><defs><path id="g" d="M1.5 1.5h32v32h-32z"/></defs><defs><path id="i" d="M15.5 9.5v10h4v-10h-4zm0 0"/></defs><defs><path id="k" d="M1.5-758.5h612v792H1.5z"/></defs><clipPath id="h"><use xlink:href="#g" overflow="visible"/></clipPath><clipPath id="j" clip-path="url(#h)"><use xlink:href="#i" overflow="visible"/></clipPath><clipPath id="l" clip-path="url(#j)"><use xlink:href="#k" overflow="visible"/></clipPath><path clip-path="url(#l)" fill-rule="evenodd" clip-rule="evenodd" fill="#868686" d="M10.5 4.5h14v20h-14v-20zm0 0"/><defs><path id="m" d="M1.5 1.5h32v32h-32z"/></defs><defs><path id="o" d="M15.964 19.793l4.243 4.242 2.828-2.828-4.242-4.243-2.83 2.83zm0 0"/></defs><defs><path id="q" d="M1.5-758.5h612v792H1.5z"/></defs><clipPath id="n"><use xlink:href="#m" overflow="visible"/></clipPath><clipPath id="p" clip-path="url(#n)"><use xlink:href="#o" overflow="visible"/></clipPath><clipPath id="r" clip-path="url(#p)"><use xlink:href="#q" overflow="visible"/></clipPath><path clip-path="url(#r)" fill-rule="evenodd" clip-rule="evenodd" fill="#868686" d="M10.964 11.964h17.07v17.07h-17.07v-17.07zm0 0"/></svg>