<svg version="1" xmlns="http://www.w3.org/2000/svg" width="40" height="35" viewBox="-13.5 -12.393 40 35" enable-background="new -13.5 -12.393 40 35"><g fill="#668FCB"><path d="M11.84 10.214c.29 0 .545-.098.76-.29l-3.683-3.68c-.09.063-.174.125-.255.183-.276.203-.5.362-.67.475-.174.113-.4.23-.688.348-.284.12-.55.178-.797.178h-.014c-.247 0-.513-.06-.798-.18-.286-.116-.514-.232-.686-.346-.173-.113-.396-.272-.672-.475-.077-.056-.162-.118-.254-.183L.4 9.927c.215.19.47.287.76.287h10.68zM.733 3.925C.458 3.74.213 3.53 0 3.293v5.604L3.246 5.65C2.596 5.2 1.76 4.624.733 3.926zM12.273 3.925c-.987.668-1.828 1.244-2.52 1.727L13 8.897V3.293c-.208.232-.45.443-.727.632zM11.84 0H1.16C.79 0 .503.126.3.377c-.2.25-.3.566-.3.943 0 .305.133.634.4.99.265.355.548.635.848.838.164.116.66.46 1.487 1.034l1.168.812c.285.198.53.37.732.512l.108.077c.052.038.118.084.2.145.157.113.288.205.392.275s.23.15.377.237c.148.086.288.15.418.195.13.043.252.065.363.065h.014c.11 0 .232-.02.363-.064.13-.045.27-.11.417-.196.148-.088.273-.166.377-.236s.234-.162.393-.275l.2-.146.107-.077c.157-.11.404-.282.736-.51.6-.42 1.486-1.034 2.66-1.85.354-.246.648-.543.885-.892.236-.347.355-.712.355-1.094 0-.318-.115-.59-.346-.82-.228-.226-.5-.34-.815-.34z"/></g></svg>