<svg xmlns="http://www.w3.org/2000/svg" width="35" height="35" viewBox="0 0 35 35"><path fill="#34AADC" d="M5.552 3c-.696 0-1.295.252-1.798.754C3.25 4.257 3 4.856 3 5.552v23.896c0 .695.25 1.294.754 1.798.503.503 1.102.754 1.798.754h23.896c.695 0 1.294-.25 1.798-.754.5-.502.754-1.102.754-1.798V5.552c0-.696-.253-1.295-.754-1.798C30.744 3.25 30.144 3 29.448 3H5.552zm20.88 10.527c0 1.76-.387 3.538-1.16 5.335-1.062 2.436-2.647 4.335-4.755 5.698-2.107 1.364-4.496 2.046-7.164 2.046-2.552 0-4.9-.687-7.047-2.06.464.04.822.06 1.073.06 2.125 0 4.03-.66 5.712-1.974-.967-.02-1.847-.323-2.64-.915C9.66 21.13 9.11 20.37 8.8 19.443c.29.058.58.087.87.087.406 0 .812-.06 1.218-.174-1.083-.214-1.972-.745-2.668-1.596-.696-.85-1.034-1.817-1.015-2.9v-.058c.657.367 1.353.56 2.088.58-1.373-.91-2.06-2.185-2.06-3.828 0-.85.204-1.624.61-2.32 1.18 1.43 2.595 2.566 4.248 3.407 1.654.842 3.4 1.31 5.235 1.407-.077-.31-.116-.657-.116-1.044 0-1.276.448-2.364 1.347-3.263.9-.9 1.986-1.35 3.264-1.35 1.315 0 2.428.485 3.336 1.45 1.023-.192 2-.56 2.93-1.1-.368 1.12-1.045 1.96-2.03 2.522.87-.078 1.75-.32 2.64-.725-.62.948-1.384 1.74-2.292 2.377.02.14.028.342.028.613z"/></svg>