<svg version="1" xmlns="http://www.w3.org/2000/svg" xmlns:xlink="http://www.w3.org/1999/xlink" width="577" height="209" viewBox="0 0 577 209"><defs><path id="a" d="M1-2.2h577v209H1z"/></defs><clipPath id="b"><use xlink:href="#a" overflow="visible"/></clipPath><path clip-path="url(#b)" fill="#fff" d="M422.356 47.904h55.296v151.99l.21 2.274h42.577V47.904H575.6V5.337H422.356v42.567"/><defs><path id="c" d="M1 1.34h574.602v205.153H1z"/></defs><clipPath id="d"><use xlink:href="#c" overflow="visible"/></clipPath><g clip-path="url(#d)"><defs><path id="e" d="M1-2.2h577v209H1z"/></defs><clipPath id="f"><use xlink:href="#e" overflow="visible"/></clipPath><path clip-path="url(#f)" fill="#fff" d="M340.214 97.277c1.356-2.175 2.533-4.5 3.624-6.73l1.484-3.313c2.66-6.86 3.987-14.06 3.987-21.75 0-15.554-6.185-30.5-17.445-42.16-11.614-11.22-26.556-17.42-42.393-17.42H207.97v196.33h93.706c15.51 0 30.44-6.18 42.12-17.44 11.21-11.648 17.384-26.605 17.384-42.11 0-15.135-5.544-29.45-15.52-40.206-1.68-1.99-3.537-3.624-5.446-5.2m-21.217 43.87c-.358 5.667-2.585 10.806-6.225 14.455-3.07 3.05-7.135 5.108-11.634 5.928l-50.654-.06V120.81h48.007c5.422 0 10.483 2.083 14.28 5.846 3.955 3.988 6.227 9.194 6.227 14.49zm-68.512-56.64V44.61h36.51c5.268 0 10.372 2.094 14 5.743 3.497 3.49 5.688 8.384 6.138 14.04l-.404 1.976c0 .983-.44 2.71-.682 3.625l-.317.982c-.28.88-.588 1.87-1.12 2.698-3.46 6.536-9.33 10.473-15.964 10.83h-38.16zM103.725 43.87c21.145 0 40.995 11.348 51.79 29.637l32.84-27.66C169.142 17.97 137.503 1.34 103.726 1.34 47.083 1.34 1 47.428 1 104.075 1 160.712 47.083 206.8 103.725 206.8c33.777 0 65.416-16.625 84.63-44.496l-32.84-27.655c-10.955 18.538-30.334 29.615-51.79 29.615-33.195 0-60.21-26.99-60.21-60.19 0-33.194 27.016-60.205 60.21-60.205"/></g></svg>