<svg xmlns="http://www.w3.org/2000/svg" width="93" height="97" viewBox="0 0 93 97"><path fill="#939598" d="M48.924 39.25l3.532-2.984h-5.458V8.236c0-4.56-3.77-8.27-8.405-8.27-4.632 0-8.402 3.71-8.402 8.27V57.14h6.354v-14.93h.01v.023h4.092v14.91h6.352V42.23h5.458l-3.532-2.98zm-12.38-2.76V7.704c0-1.114.92-2.02 2.05-2.02 1.132 0 2.053.906 2.053 2.02v28.56h-4.092v.224h-.01z"/><path fill="#6C8BC7" d="M65.18 39.25l3.532-2.984h-5.46V8.236c0-4.56-3.77-8.27-8.403-8.27-4.634 0-8.402 3.71-8.402 8.27V57.14H52.8v-14.93h.01v.023h4.09v14.91h6.354V42.23h5.46l-3.533-2.98zM52.8 36.49V7.704c0-1.114.92-2.02 2.05-2.02s2.052.906 2.052 2.02l-.002 28.56h-4.09v.224h-.01z"/><path fill="#939598" d="M9.34 80.97v-.597c.137-.02.28-.038.43-.058s.287-.04.408-.065c.122-.024.22-.053.3-.087.077-.034.115-.07.115-.11 0-.047-.012-.103-.036-.166l-.08-.21-.64-1.772c-.04-.107-.137-.18-.293-.225s-.315-.065-.48-.065H6.938c-.31 0-.5.097-.568.29l-.466 1.48c-.02.05-.034.103-.043.16-.01.06-.014.122-.014.19 0 .377.413.565 1.238.565v.668H3.69V80.3c.544-.04.947-.368 1.21-.987l3.45-8.205 1.354.19 3.393 8.508c.04.107.102.194.19.262.086.068.186.12.297.16.112.038.226.07.342.094.117.024.228.042.335.05v.597H9.34zm-1.164-7.48l-1.15 2.773c-.107.232-.16.378-.16.436 0 .077.15.115.452.115h1.79c.234 0 .35-.02.35-.058 0-.05-.092-.31-.276-.784L8.176 73.49zM19.285 75.625c.03-.03.114-.118.255-.27l.51-.55.64-.705c.23-.252.438-.49.627-.72.19-.227.347-.428.473-.603.126-.174.19-.295.19-.362 0-.29-.346-.436-1.035-.436v-.64h3.902v.64c-.33 0-.636.022-.917.07-.282.05-.52.18-.714.393L20.26 75.68c.417.06.78.15 1.085.277.306.126.57.273.793.442.223.17.405.35.546.544s.255.383.342.566c.136.31.245.617.328.922.082.305.162.58.24.82.078.242.17.438.276.59.107.148.257.224.452.224.213 0 .378-.223.495-.668l.48.146c0 .136-.044.293-.13.472-.088.18-.217.35-.387.516s-.374.305-.61.42c-.24.117-.503.176-.795.176-.602 0-1.046-.093-1.332-.276-.287-.184-.478-.416-.575-.697-.204-.57-.38-1.09-.53-1.554-.152-.464-.312-.863-.48-1.197-.17-.334-.365-.59-.584-.77-.22-.18-.498-.27-.837-.27-.194 0-.31.035-.35.103v3.006c0 .29.097.51.292.66.193.15.528.226 1.003.226v.61H14.99v-.61c.874 0 1.31-.295 1.31-.886V72.91c0-.62-.47-.93-1.412-.93v-.64h5.053v.64c-.834 0-1.25.31-1.25.93v2.57c.028.096.106.145.232.145h.363zM30.978 80.97v-.597c.136-.02.28-.038.43-.058s.286-.04.407-.065c.122-.024.22-.053.3-.087.077-.034.115-.07.115-.11 0-.047-.012-.103-.036-.166l-.08-.21-.64-1.772c-.04-.106-.137-.18-.293-.225s-.314-.065-.48-.065h-2.125c-.31 0-.5.097-.568.29l-.466 1.48c-.02.05-.033.103-.042.16-.01.06-.015.122-.015.19 0 .377.413.565 1.238.565v.668H25.33V80.3c.543-.04.946-.368 1.208-.987l3.45-8.205 1.355.19 3.394 8.508c.04.107.102.194.19.262.086.068.186.12.297.16.113.038.227.07.343.094.117.024.228.042.335.05v.597h-4.92zm-1.166-7.48l-1.15 2.773c-.107.232-.16.378-.16.436 0 .077.15.115.452.115h1.79c.234 0 .35-.02.35-.058 0-.05-.092-.31-.276-.784l-1.006-2.483zM39.61 80.97c-.426 0-.79.037-1.09.115-.302.077-.554.218-.758.42-.204.204-.37.482-.495.836s-.223.807-.29 1.36l-.846-.074V80.33h.394c.194-.01.337-.034.43-.073.092-.038.204-.102.335-.188s.273-.248.43-.48c.154-.232.307-.52.457-.863.15-.344.298-.733.444-1.17.147-.436.273-.895.38-1.38.106-.483.194-.98.262-1.487.067-.51.102-1.005.102-1.488 0-.813-.476-1.22-1.427-1.22v-.64H46.5v.64c-.884 0-1.326.382-1.326 1.146v6.056c0 .765.49 1.147 1.47 1.147h.25v3.297l-.845.073c-.08-.562-.18-1.02-.307-1.38-.126-.358-.298-.637-.517-.835s-.485-.334-.8-.406c-.316-.074-.698-.11-1.144-.11h-3.67zm.7-8.264c0 .746-.045 1.457-.138 2.135s-.213 1.315-.364 1.91c-.15.596-.328 1.152-.532 1.67-.204.52-.417.985-.64 1.4-.04.08-.03.137.028.176.058.038.14.065.248.08.106.014.22.023.342.028.12.005.23.008.328.008h2.097c.145 0 .283-.005.414-.015.13-.01.247-.03.35-.065s.184-.082.247-.146c.064-.062.096-.147.096-.254v-6.956c0-.106-.032-.19-.095-.254-.062-.062-.145-.11-.247-.146-.102-.033-.218-.056-.35-.065-.13-.008-.27-.013-.414-.013h-.32c-.108 0-.225.002-.35.007-.127.005-.24.024-.343.06-.102.032-.187.083-.255.15-.068.07-.1.166-.1.292zM48.275 80.97v-.61c.873 0 1.31-.28 1.31-.843V73.07c0-.727-.47-1.09-1.412-1.09v-.64h8.358l.116 2.848-.886.072c-.088-.532-.215-.94-.38-1.227-.165-.286-.364-.494-.597-.625s-.5-.208-.8-.232c-.302-.023-.636-.036-1.005-.036-.32 0-.568.046-.742.138-.176.092-.264.224-.264.397v2.545c0 .23.11.347.336.347.232 0 .445-.014.64-.043.194-.03.366-.095.517-.196s.275-.254.373-.457c.096-.203.16-.478.19-.827h.843v3.877h-.843c-.03-.33-.078-.595-.146-.8-.067-.202-.16-.356-.282-.463-.123-.106-.275-.18-.46-.218-.185-.04-.407-.064-.67-.074-.33.03-.495.16-.495.393v2.714c0 .465.365.697 1.092.697.594 0 1.066-.045 1.42-.137.355-.092.645-.232.867-.42.223-.19.402-.43.54-.72.134-.29.274-.64.42-1.046l.83.116-.407 3.006h-8.46zM66.417 80.97v-.61c.845 0 1.268-.32 1.268-.96l-.117-6.07-2.883 7.64h-1.31l-3.117-7.595-.058 5.822c0 .774.476 1.16 1.427 1.16v.61H58v-.61c.44 0 .773-.103 1.006-.31.233-.21.354-.53.364-.967l.116-6.346c0-.116-.007-.22-.02-.312s-.07-.17-.16-.232c-.094-.062-.236-.113-.43-.152-.195-.038-.467-.058-.816-.058v-.64h3.902l2.81 7.028 2.71-7.028h3.436v.64c-.292 0-.524.02-.7.064-.174.044-.312.103-.414.175s-.167.15-.196.238-.044.18-.044.276l.175 6.563c.02.707.45 1.06 1.295 1.06v.61h-4.618zM72.488 80.97v-.61c.903 0 1.354-.296 1.354-.887v-6.346c0-.765-.47-1.146-1.412-1.146v-.64h5.096v.64c-.864 0-1.296.383-1.296 1.147v6.346c0 .59.456.886 1.37.886v.61h-5.112zM84.72 76.685c-.04-.067-.156-.102-.35-.102-.34 0-.612.06-.815.182-.204.12-.384.312-.54.574-.154.26-.303.597-.443 1.008s-.318.907-.53 1.488c-.07.194-.147.37-.234.53-.087.16-.2.295-.342.406s-.313.198-.517.262c-.205.062-.458.095-.76.095-.34 0-.64-.06-.9-.176s-.48-.256-.656-.42-.306-.337-.394-.517c-.087-.18-.13-.336-.13-.472l.48-.146c.058.222.138.39.24.5.102.11.21.167.327.167.184 0 .325-.072.422-.218.096-.146.18-.337.254-.573.073-.237.146-.503.22-.798.07-.296.176-.593.31-.893.098-.223.21-.408.336-.56.126-.148.276-.27.45-.36s.387-.165.635-.22c.247-.052.546-.093.896-.122-.883-.04-1.57-.267-2.066-.684-.495-.415-.743-.987-.743-1.714 0-.368.064-.712.19-1.032.126-.32.318-.6.575-.843s.575-.43.954-.566c.377-.136.823-.203 1.338-.203.485 0 .886.003 1.2.008s.59.013.816.022c.23.01.44.017.634.02s.417.008.67.008h2.286v.64c-.903 0-1.354.27-1.354.812v6.724c0 .562.417.842 1.252.842v.61h-5.01v-.61c.865 0 1.297-.28 1.297-.842v-2.83zm0-3.89c0-.475-.147-.713-.438-.713h-.29c-.225 0-.434.03-.627.087-.194.058-.362.157-.503.298-.14.142-.252.333-.335.576-.082.243-.123.55-.123.918 0 .398.04.722.123.97.083.248.2.44.35.576.15.136.33.228.54.276s.443.073.705.073h.364c.126 0 .204-.05.232-.146v-2.914z"/><path fill="#6C8BC7" d="M11.94 96.407v-.596l.428-.057s.287-.04.408-.065c.122-.024.22-.053.3-.087.077-.033.115-.07.115-.108 0-.048-.01-.104-.035-.167l-.08-.21-.64-1.772c-.04-.106-.137-.18-.293-.225s-.315-.065-.48-.065H9.537c-.31 0-.5.097-.568.29l-.467 1.48c-.02.05-.034.103-.043.16-.01.06-.015.122-.015.19 0 .377.413.565 1.238.565v.668H6.29v-.668c.543-.04.946-.368 1.208-.987l3.45-8.204 1.355.19 3.393 8.508c.04.107.102.194.19.262.086.068.186.12.297.16.112.038.226.07.342.094.117.024.228.042.335.05v.597h-4.92zm-1.166-7.478L9.624 91.7c-.107.232-.16.378-.16.436 0 .078.15.116.452.116h1.79c.234 0 .35-.02.35-.058 0-.05-.092-.31-.276-.784l-1.006-2.483zM17.545 96.407v-.61c.864 0 1.296-.314 1.296-.943v-6.68c0-.504-.45-.755-1.353-.755v-.64h3.29c.37 0 .678-.008.925-.022s.532-.02.852-.02c1.28 0 2.218.233 2.81.703.592.47.888 1.19.888 2.157 0 .368-.065.717-.197 1.046-.13.33-.347.614-.648.856s-.69.433-1.165.572c-.476.14-1.058.21-1.748.21-.29 0-.53-.01-.72-.028-.19-.02-.372-.048-.547-.087v2.628c0 .32.12.566.364.74.243.175.598.262 1.063.262v.61h-5.108zm3.684-4.98c.193.048.387.082.582.102.194.02.422.027.684.027.3 0 .537-.055.707-.167.17-.11.296-.26.378-.442s.134-.4.154-.646.03-.5.03-.762c0-.358-.03-.67-.088-.938-.058-.266-.163-.486-.313-.66-.15-.175-.357-.305-.62-.393-.26-.088-.59-.13-.99-.13-.35 0-.523.217-.523.652v3.355zM28.712 96.407v-.61c1.01 0 1.515-.406 1.515-1.22v-6.563c0-.29-.2-.436-.597-.436-.3 0-.56.05-.78.152-.218.102-.407.254-.567.458-.16.203-.296.457-.408.762-.112.306-.21.66-.3 1.067l-.902-.13.408-3.225c.253.04.53.068.83.088s.54.028.714.028h5.75c.214 0 .477-.01.788-.028.31-.02.592-.05.844-.088v3.18l-.844.073c-.05-.765-.21-1.336-.488-1.713-.277-.378-.755-.566-1.435-.566-.418 0-.627.126-.627.377v6.563c0 .813.515 1.22 1.543 1.22v.61h-5.444zM36.924 96.407v-.61c.874 0 1.31-.28 1.31-.842v-6.447c0-.727-.47-1.09-1.412-1.09v-.64h8.358l.117 2.848-.888.072c-.088-.532-.215-.94-.38-1.227-.165-.285-.364-.493-.597-.624s-.5-.208-.8-.232c-.302-.023-.637-.036-1.006-.036-.32 0-.568.046-.743.138s-.262.224-.262.397v2.545c0 .23.112.347.335.347.233 0 .446-.014.64-.043s.368-.095.518-.196.274-.254.37-.457c.098-.205.16-.48.19-.83h.845v3.878h-.845c-.03-.33-.078-.595-.146-.8-.07-.202-.164-.356-.285-.463-.12-.106-.274-.18-.458-.218-.185-.04-.408-.063-.67-.073-.33.03-.495.16-.495.393v2.715c0 .465.364.697 1.092.697.592 0 1.065-.047 1.42-.14s.642-.23.866-.42c.223-.19.402-.43.54-.72.135-.29.276-.64.42-1.045l.83.116-.407 3.007h-8.46zM46.986 96.407v-.61c.864 0 1.295-.314 1.295-.943v-6.68c0-.504-.45-.755-1.353-.755v-.64h3.29c.37 0 .68-.008.926-.022.248-.015.53-.02.852-.02 1.28 0 2.22.233 2.81.703s.89 1.19.89 2.157c0 .368-.066.717-.197 1.046s-.347.614-.647.856-.688.433-1.164.572c-.476.14-1.06.21-1.747.21-.292 0-.532-.01-.722-.028s-.372-.048-.546-.087v2.628c0 .32.12.566.363.74.243.175.598.262 1.063.262v.61h-5.112zm3.684-4.98c.193.048.388.082.582.102s.422.027.685.027c.3 0 .536-.055.706-.167.17-.11.296-.26.38-.442.08-.184.132-.4.15-.646s.03-.5.03-.762c0-.358-.03-.67-.088-.938-.058-.266-.162-.486-.312-.66-.15-.175-.356-.305-.62-.393-.26-.088-.59-.13-.99-.13-.35 0-.522.217-.522.652v3.355zM56.988 96.407v-.61c.903 0 1.354-.295 1.354-.886v-6.345c0-.765-.47-1.146-1.412-1.146v-.64h5.096v.64c-.864 0-1.296.38-1.296 1.145v6.346c0 .592.456.887 1.37.887v.61h-5.112zM66.16 95.913c.107 0 .207-.02.3-.064.092-.045.19-.125.29-.24.103-.118.217-.282.343-.496.127-.213.277-.494.452-.844l-3.45-5.92c-.166-.31-.372-.543-.62-.698-.247-.155-.512-.232-.793-.232v-.64h4.44v.64h-.45c-.166 0-.302.023-.408.072-.107.05-.137.116-.088.203l2.505 4.196c.272-.628.518-1.196.736-1.705l.56-1.3c.156-.357.274-.634.357-.827.082-.193.124-.295.124-.305 0-.116-.1-.2-.3-.255-.198-.053-.438-.08-.72-.08v-.64h3.174v.64c-.184.03-.348.054-.494.073-.146.02-.276.057-.393.11-.116.053-.22.135-.313.246-.092.11-.177.27-.255.472-.523 1.152-.976 2.16-1.354 3.02-.378.863-.713 1.604-1.004 2.224-.29.62-.55 1.127-.78 1.524-.227.396-.445.71-.654.943s-.42.392-.633.478c-.215.087-.453.13-.715.13-.495 0-.888-.113-1.18-.34-.29-.228-.437-.55-.437-.966 0-.232.07-.443.21-.632.142-.19.367-.283.68-.283.202 0 .38.062.53.184s.226.326.226.61c0 .136-.027.25-.08.344-.054.093-.12.163-.196.212.038.04.092.073.16.103s.146.043.233.043zM81.304 96.407v-.61c.845 0 1.268-.32 1.268-.958l-.117-6.07-2.883 7.638h-1.31l-3.117-7.595-.058 5.823c0 .774.476 1.16 1.427 1.16v.61h-3.626v-.61c.438 0 .772-.103 1.005-.31.233-.21.354-.53.364-.967l.116-6.347c0-.116-.007-.22-.02-.312s-.07-.168-.16-.23c-.094-.063-.236-.114-.43-.153-.195-.038-.467-.058-.816-.058v-.64h3.902l2.81 7.027 2.708-7.028h3.437v.64c-.292 0-.524.02-.7.063-.174.044-.312.103-.414.175s-.166.152-.195.24-.044.18-.044.275l.176 6.563c.02.707.45 1.06 1.296 1.06v.61h-4.618z"/></svg>