<svg xmlns="http://www.w3.org/2000/svg" width="93" height="97" viewBox="0 0 93 97"><path fill="#939598" d="M48.924 39.25l3.532-2.984h-5.458V8.236c0-4.56-3.77-8.27-8.405-8.27-4.632 0-8.402 3.71-8.402 8.27V57.14h6.354v-14.93h.01v.023h4.092v14.91h6.352V42.23h5.458l-3.532-2.98zm-12.38-2.76V7.704c0-1.114.92-2.02 2.05-2.02 1.132 0 2.053.906 2.053 2.02v28.56h-4.092v.224h-.01z"/><path fill="#6C8BC7" d="M65.18 39.25l3.532-2.984h-5.46V8.236c0-4.56-3.77-8.27-8.403-8.27-4.634 0-8.402 3.71-8.402 8.27V57.14H52.8v-14.93h.01v.023h4.09v14.91h6.354V42.23h5.46l-3.533-2.98zM52.8 36.49V7.704c0-1.114.92-2.02 2.05-2.02s2.052.906 2.052 2.02l-.002 28.56h-4.09v.224h-.01z"/><path fill="#939598" d="M6.057 80.97v-.597c.136-.02.28-.038.43-.058s.286-.04.407-.065c.122-.024.22-.053.3-.087.077-.034.115-.07.115-.11 0-.047-.013-.103-.037-.166l-.08-.21-.64-1.772c-.04-.106-.137-.18-.293-.225s-.315-.065-.48-.065H3.654c-.31 0-.5.097-.568.29l-.466 1.48c-.02.05-.034.103-.043.16-.01.06-.015.122-.015.19 0 .377.413.565 1.238.565v.668H.408V80.3c.543-.04.946-.368 1.208-.987l3.45-8.205 1.355.19 3.394 8.508c.04.107.102.194.19.262.086.068.186.12.297.16.113.038.227.07.343.094.117.024.228.042.335.05v.597h-4.92zm-1.165-7.48l-1.15 2.773c-.107.232-.16.378-.16.436 0 .077.15.115.452.115h1.79c.234 0 .35-.02.35-.058 0-.05-.092-.31-.276-.784L4.892 73.49zM16 75.625c.03-.03.115-.118.256-.27l.51-.55.64-.705c.23-.252.438-.49.627-.72.19-.227.347-.428.473-.603.126-.174.19-.295.19-.362 0-.29-.346-.436-1.035-.436v-.64h3.903v.64c-.33 0-.636.022-.917.07-.282.05-.52.18-.714.393l-2.956 3.238c.417.06.78.15 1.085.277.307.126.57.273.794.442.223.17.405.35.546.544s.255.383.342.566c.136.31.245.617.328.922.082.305.162.58.24.82.078.242.17.438.276.59.107.148.257.224.452.224.213 0 .378-.223.495-.668l.48.146c0 .136-.044.293-.13.472-.088.18-.217.35-.387.516s-.374.305-.61.42c-.24.117-.503.176-.795.176-.6 0-1.045-.093-1.33-.276-.288-.184-.48-.416-.576-.697-.204-.57-.38-1.09-.53-1.554-.152-.464-.312-.863-.48-1.197-.17-.334-.365-.59-.584-.77-.22-.18-.498-.27-.837-.27-.194 0-.31.035-.35.103v3.006c0 .29.097.51.292.66.194.15.53.226 1.004.226v.61h-4.995v-.61c.874 0 1.31-.295 1.31-.886V72.91c0-.62-.47-.93-1.412-.93v-.64h5.053v.64c-.835 0-1.252.31-1.252.93v2.57c.03.096.107.145.233.145H16zM27.694 80.97v-.597c.136-.02.28-.038.43-.058s.286-.04.407-.065c.123-.024.222-.053.3-.087.078-.034.116-.07.116-.11 0-.047-.012-.103-.036-.166l-.08-.21-.64-1.772c-.04-.106-.137-.18-.293-.225s-.315-.065-.48-.065H25.29c-.31 0-.5.097-.567.29l-.466 1.48c-.02.05-.034.103-.043.16-.01.06-.015.122-.015.19 0 .377.412.565 1.237.565v.668h-3.393V80.3c.543-.04.946-.368 1.208-.987l3.45-8.205 1.355.19 3.393 8.508c.04.107.102.194.19.262.086.068.186.12.297.16.112.038.226.07.342.094.116.024.227.042.334.05v.597h-4.92zm-1.165-7.48l-1.15 2.773c-.108.232-.16.378-.16.436 0 .077.15.115.45.115h1.792c.233 0 .35-.02.35-.058 0-.05-.093-.31-.277-.784L26.53 73.49zM36.328 80.97c-.427 0-.79.037-1.092.115-.3.077-.553.218-.757.42-.205.204-.37.482-.496.836s-.223.807-.29 1.36l-.846-.074V80.33h.393c.195-.01.338-.034.43-.073.093-.038.205-.102.336-.188s.274-.248.43-.48c.155-.232.308-.52.458-.863.15-.344.298-.733.444-1.17.146-.436.272-.895.38-1.38.105-.483.193-.98.26-1.487.068-.51.103-1.005.103-1.488 0-.813-.475-1.22-1.426-1.22v-.64h8.562v.64c-.883 0-1.325.382-1.325 1.146v6.056c0 .765.49 1.147 1.472 1.147h.248v3.297l-.844.073c-.078-.562-.18-1.02-.306-1.38-.126-.358-.298-.637-.517-.835s-.485-.334-.8-.406c-.316-.074-.698-.11-1.144-.11h-3.672zm.7-8.264c0 .746-.047 1.457-.14 2.135s-.213 1.315-.364 1.91c-.15.596-.328 1.152-.532 1.67-.204.52-.417.985-.64 1.4-.04.08-.03.137.028.176.058.038.14.065.248.08.106.014.22.023.342.028.12.005.23.008.328.008h2.097c.146 0 .284-.005.415-.015.13-.01.247-.03.35-.065s.184-.082.247-.146c.063-.062.095-.147.095-.254v-6.956c0-.106-.032-.19-.095-.254-.063-.062-.146-.11-.248-.146-.103-.033-.22-.056-.35-.065-.13-.008-.27-.013-.415-.013h-.32c-.107 0-.224.002-.35.007-.126.005-.24.024-.342.06-.102.032-.187.083-.255.15-.067.07-.1.166-.1.292zM44.99 80.97v-.61c.875 0 1.312-.28 1.312-.843V73.07c0-.727-.47-1.09-1.413-1.09v-.64h8.357l.116 2.848-.888.072c-.088-.532-.214-.94-.38-1.227-.164-.286-.363-.494-.596-.625-.234-.13-.5-.208-.802-.232-.3-.023-.636-.036-1.005-.036-.32 0-.567.046-.742.138s-.262.224-.262.397v2.545c0 .23.11.347.335.347.233 0 .446-.014.64-.043s.367-.095.518-.196.275-.254.373-.457c.097-.203.16-.478.19-.827h.843v3.877h-.844c-.03-.33-.078-.595-.146-.8-.067-.202-.162-.356-.283-.463-.122-.106-.274-.18-.46-.218-.184-.04-.406-.064-.67-.074-.33.03-.494.16-.494.393v2.714c0 .465.363.697 1.09.697.594 0 1.066-.045 1.42-.137s.645-.232.867-.42c.224-.19.403-.43.54-.72.135-.29.275-.64.42-1.046l.83.116-.406 3.006h-8.46zM63.133 80.97v-.61c.845 0 1.268-.32 1.268-.96l-.116-6.07-2.884 7.64h-1.31l-3.116-7.596-.058 5.823c0 .774.476 1.16 1.427 1.16v.61h-3.626v-.61c.438 0 .772-.103 1.005-.31.233-.21.354-.53.364-.967l.116-6.346c0-.116-.007-.22-.02-.312s-.07-.17-.16-.232c-.094-.062-.236-.113-.43-.152-.196-.038-.467-.058-.817-.058v-.64h3.902l2.81 7.028 2.71-7.028h3.436v.64c-.292 0-.524.02-.7.064-.174.044-.312.103-.414.175s-.168.15-.197.238-.044.18-.044.276l.174 6.563c.02.707.45 1.06 1.296 1.06v.61h-4.617zM77.185 74.042l-4.18 5.43c0 .592.438.887 1.312.887v.61h-5.17v-.61c.98 0 1.472-.296 1.472-.887v-6.346c0-.765-.49-1.146-1.472-1.146v-.64h5.17v.64c-.875 0-1.312.383-1.312 1.147v5.083l4.135-5.432c-.125-.532-.586-.798-1.382-.798v-.64h5.14v.64c-.884 0-1.325.382-1.325 1.146v6.346c0 .59.44.886 1.325.886v.61h-5.14v-.61c.95 0 1.427-.295 1.427-.886v-5.43zM88.002 76.685c-.04-.067-.155-.102-.35-.102-.34 0-.61.06-.814.182-.204.12-.384.312-.54.574-.154.26-.303.597-.443 1.008s-.318.907-.53 1.488c-.07.194-.147.37-.234.53-.086.16-.2.295-.34.406s-.314.198-.518.262c-.204.062-.457.095-.758.095-.34 0-.64-.06-.902-.176s-.48-.256-.655-.42-.306-.337-.394-.517c-.087-.18-.13-.336-.13-.472l.48-.146c.058.222.138.39.24.5.102.11.21.167.327.167.184 0 .325-.072.422-.218.097-.146.182-.337.255-.573.073-.237.146-.503.22-.798.07-.296.176-.593.31-.893.098-.223.21-.408.336-.56.126-.148.276-.27.45-.36s.387-.165.635-.22c.247-.052.546-.093.896-.122-.884-.04-1.572-.267-2.067-.684-.495-.415-.743-.987-.743-1.714 0-.368.063-.712.19-1.032.125-.32.317-.6.574-.843s.575-.43.954-.566c.378-.136.824-.203 1.34-.203.484 0 .885.003 1.2.008s.588.013.815.022c.23.01.44.017.634.02s.418.008.67.008h2.287v.64c-.903 0-1.354.27-1.354.812v6.724c0 .562.417.842 1.252.842v.61h-5.01v-.61c.865 0 1.297-.28 1.297-.842v-2.83zm0-3.89c0-.475-.146-.713-.437-.713h-.29c-.225 0-.434.03-.627.087-.194.058-.362.157-.503.298-.14.142-.252.333-.335.576-.082.243-.123.55-.123.918 0 .398.04.722.123.97.083.248.2.44.35.576.15.136.33.228.54.276s.443.073.705.073h.364c.125 0 .203-.05.23-.146v-2.914z"/><path fill="#6C8BC7" d="M8.656 96.407v-.596l.43-.057s.286-.04.407-.065c.122-.024.22-.053.3-.087.077-.033.115-.07.115-.108 0-.048-.012-.104-.036-.167l-.08-.21-.64-1.772c-.04-.106-.137-.18-.293-.225s-.316-.065-.48-.065H6.252c-.31 0-.5.097-.568.29l-.465 1.48c-.02.05-.034.103-.043.16-.01.06-.015.122-.015.19 0 .377.413.565 1.238.565v.668H3.007v-.668c.543-.04.946-.368 1.208-.987l3.45-8.204 1.355.19 3.393 8.508c.04.107.102.194.19.262.086.068.186.12.297.16.112.038.226.07.342.094.117.024.228.042.335.05v.597h-4.92zM7.49 88.93L6.34 91.7c-.106.232-.16.378-.16.436 0 .078.15.116.453.116h1.79c.234 0 .35-.02.35-.058 0-.05-.092-.31-.276-.784L7.49 88.93zM14.262 96.407v-.61c.864 0 1.296-.314 1.296-.943v-6.68c0-.504-.452-.755-1.354-.755v-.64h3.29c.37 0 .678-.008.925-.022s.53-.02.85-.02c1.282 0 2.22.233 2.81.703.593.47.89 1.19.89 2.157 0 .368-.066.717-.198 1.046-.13.33-.347.614-.648.856s-.69.433-1.165.572c-.477.14-1.06.21-1.75.21-.29 0-.53-.01-.72-.028-.19-.02-.37-.048-.546-.087v2.628c0 .32.12.566.364.74.242.175.597.262 1.062.262v.61h-5.108zm3.683-4.98c.194.048.388.082.583.102.194.02.422.027.684.027.3 0 .537-.055.707-.167.168-.11.295-.26.377-.442s.133-.4.153-.646.03-.5.03-.762c0-.358-.03-.67-.088-.938-.058-.266-.163-.486-.313-.66-.152-.175-.358-.305-.62-.393-.262-.088-.592-.13-.99-.13-.35 0-.524.217-.524.652v3.355zM25.43 96.407v-.61c1.01 0 1.515-.406 1.515-1.22v-6.563c0-.29-.2-.436-.597-.436-.3 0-.56.05-.78.152-.218.102-.407.254-.567.458-.16.203-.295.457-.407.762-.112.306-.21.66-.3 1.067l-.902-.13.41-3.225c.25.04.528.068.83.088s.538.028.712.028h5.75c.214 0 .477-.01.788-.028.31-.02.592-.05.844-.088v3.18l-.844.073c-.05-.765-.21-1.336-.488-1.713-.277-.378-.755-.566-1.435-.566-.417 0-.626.126-.626.377v6.563c0 .813.516 1.22 1.544 1.22v.61H25.43zM33.642 96.407v-.61c.874 0 1.31-.28 1.31-.842v-6.447c0-.727-.47-1.09-1.412-1.09v-.64h8.358l.117 2.848-.888.072c-.087-.532-.214-.94-.38-1.227-.164-.285-.363-.493-.596-.624s-.5-.208-.8-.232c-.3-.023-.636-.036-1.005-.036-.32 0-.568.046-.743.138s-.262.224-.262.397v2.545c0 .23.112.347.335.347.233 0 .446-.014.64-.043s.368-.095.518-.196.274-.254.37-.457c.098-.205.16-.48.19-.83h.845v3.878h-.845c-.03-.33-.078-.595-.146-.8-.068-.202-.163-.356-.284-.463-.12-.106-.274-.18-.458-.218-.185-.04-.408-.063-.67-.073-.33.03-.495.16-.495.393v2.715c0 .465.364.697 1.092.697.592 0 1.065-.047 1.42-.14s.642-.23.866-.42c.223-.19.402-.43.54-.72.135-.29.276-.64.42-1.045l.83.116-.407 3.007h-8.458zM43.703 96.407v-.61c.864 0 1.296-.314 1.296-.943v-6.68c0-.504-.453-.755-1.355-.755v-.64h3.29c.37 0 .678-.008.925-.022.248-.015.532-.02.853-.02 1.28 0 2.218.233 2.81.703s.89 1.19.89 2.157c0 .368-.067.717-.198 1.046s-.346.614-.646.856-.69.433-1.167.572c-.475.14-1.06.21-1.747.21-.29 0-.53-.01-.72-.028-.19-.02-.372-.048-.547-.087v2.628c0 .32.12.566.363.74.242.175.597.262 1.062.262v.61h-5.112zm3.684-4.98c.194.048.39.082.582.102.193.02.422.027.684.027.302 0 .536-.055.706-.167.17-.11.297-.26.38-.442s.132-.4.15-.646.03-.5.03-.762c0-.358-.03-.67-.088-.938-.057-.266-.162-.486-.312-.66-.15-.175-.355-.305-.62-.393-.26-.088-.59-.13-.988-.13-.35 0-.524.217-.524.652v3.355zM61.686 89.48l-4.18 5.43c0 .592.438.887 1.312.887v.61h-5.17v-.61c.98 0 1.472-.295 1.472-.886v-6.345c0-.765-.49-1.146-1.47-1.146v-.64h5.168v.64c-.874 0-1.31.38-1.31 1.145v5.083l4.134-5.432c-.126-.532-.587-.798-1.383-.798v-.64h5.14v.64c-.885 0-1.326.382-1.326 1.146v6.346c0 .59.44.886 1.325.886v.61h-5.14v-.61c.95 0 1.426-.295 1.426-.886v-5.43zM69.445 95.913c.106 0 .206-.02.3-.064.09-.045.188-.125.29-.24.102-.118.216-.282.342-.496.127-.213.277-.494.452-.844l-3.452-5.92c-.165-.31-.37-.543-.62-.698-.246-.155-.51-.232-.792-.232v-.64h4.44v.64h-.45c-.166 0-.302.023-.408.072-.107.05-.137.116-.088.203l2.505 4.196c.27-.628.517-1.196.735-1.705l.56-1.3c.156-.357.274-.634.357-.827.082-.193.124-.295.124-.305 0-.116-.1-.2-.298-.255-.2-.053-.44-.08-.72-.08v-.64h3.173v.64c-.185.03-.35.054-.495.073-.146.02-.276.057-.393.11-.116.053-.22.135-.313.246-.092.11-.177.27-.255.472-.524 1.152-.977 2.16-1.355 3.02-.38.863-.714 1.604-1.005 2.224-.29.62-.55 1.127-.78 1.524-.227.396-.445.71-.654.943s-.42.392-.633.478c-.213.088-.45.132-.713.132-.495 0-.888-.114-1.18-.342-.29-.227-.437-.55-.437-.965 0-.232.07-.443.21-.632.142-.188.367-.282.68-.282.202 0 .38.062.53.184s.226.325.226.608c0 .137-.028.252-.08.345-.055.093-.12.163-.197.212.038.04.092.073.16.103.067.03.145.043.232.043zM84.588 96.407v-.61c.845 0 1.268-.32 1.268-.958l-.117-6.07-2.884 7.638h-1.31l-3.117-7.595-.06 5.823c0 .774.477 1.16 1.428 1.16v.61h-3.626v-.61c.438 0 .772-.103 1.005-.31.233-.21.354-.53.364-.967l.117-6.347c0-.116-.007-.22-.02-.312s-.07-.168-.16-.23c-.094-.063-.236-.114-.43-.153-.195-.038-.467-.058-.816-.058v-.64h3.903l2.81 7.027 2.71-7.028h3.436v.64c-.293 0-.525.02-.7.063-.175.044-.313.103-.415.175s-.167.152-.196.24-.045.18-.045.275l.175 6.563c.02.707.45 1.06 1.296 1.06v.61h-4.618z"/></svg>