<?xml version="1.0" encoding="utf-8"?>
<!-- Generator: Adobe Illustrator 16.0.0, SVG Export Plug-In . SVG Version: 6.00 Build 0)  -->
<!DOCTYPE svg PUBLIC "-//W3C//DTD SVG 1.1//EN" "http://www.w3.org/Graphics/SVG/1.1/DTD/svg11.dtd">
<svg version="1.1" id="Layer_1" xmlns="http://www.w3.org/2000/svg" xmlns:xlink="http://www.w3.org/1999/xlink" x="0px" y="0px"
	 width="49px" height="49px" viewBox="0 0 49 49" enable-background="new 0 0 49 49" xml:space="preserve">
<polygon fill="#FFFFFF" points="19.869,21.956 23.47,25.559 27.069,29.162 21.928,30.701 16.786,32.238 18.327,27.096 "/>
<rect x="27.762" y="4.954" transform="matrix(-0.707 -0.7072 0.7072 -0.707 44.4704 51.3355)" fill="#FFFFFF" width="10.213" height="23.005"/>
<path fill="#FFFFFF" d="M43.548,19.755V38.42c0,3.164-2.565,5.729-5.729,5.729H10.16c-3.163,0-5.727-2.564-5.727-5.729V12.215
	c0-3.163,2.564-5.727,5.727-5.727h18.699l4.269-4.268H7.025C3.146,2.221,0,5.366,0,9.246v32.145c0,3.879,3.146,7.025,7.025,7.025
	h33.93c3.879,0,7.024-3.146,7.024-7.025V15.322L43.548,19.755z"/>
<path fill="#FFFFFF" d="M45.648,10.936l2.645-2.645c0.613-0.613,0.613-1.607,0-2.22l-5.028-5.027c-0.613-0.613-1.607-0.613-2.22,0
	L38.4,3.687L45.648,10.936z"/>
<g>
</g>
<g>
</g>
<g>
</g>
<g>
</g>
<g>
</g>
<g>
</g>
</svg>
