<?xml version="1.0" encoding="utf-8"?>
<!-- Generator: Adobe Illustrator 16.0.0, SVG Export Plug-In . SVG Version: 6.00 Build 0)  -->
<!DOCTYPE svg PUBLIC "-//W3C//DTD SVG 1.1//EN" "http://www.w3.org/Graphics/SVG/1.1/DTD/svg11.dtd">
<svg version="1.1" id="Capa_1" xmlns="http://www.w3.org/2000/svg" xmlns:xlink="http://www.w3.org/1999/xlink" x="0px" y="0px"
	 width="11.578px" height="16px" viewBox="103.318 64.999 11.578 16" enable-background="new 103.318 64.999 11.578 16"
	 xml:space="preserve">
<g>
	<path fill="#FFFFFF" d="M110.395,76.999h-3c-0.146,0-0.266,0.047-0.359,0.14c-0.094,0.095-0.141,0.215-0.141,0.36v3
		c0,0.146,0.046,0.266,0.141,0.359c0.093,0.094,0.213,0.14,0.359,0.14h3c0.146,0,0.266-0.046,0.359-0.14
		c0.093-0.094,0.141-0.214,0.141-0.359v-3c0-0.146-0.048-0.266-0.141-0.36C110.66,77.046,110.54,76.999,110.395,76.999z"/>
	<path fill="#FFFFFF" d="M114.027,67.452c-0.578-0.782-1.3-1.386-2.164-1.812c-0.864-0.427-1.75-0.641-2.656-0.641
		c-2.531,0-4.464,1.109-5.797,3.328c-0.156,0.25-0.115,0.469,0.125,0.657l2.062,1.562c0.073,0.062,0.172,0.094,0.297,0.094
		c0.167,0,0.297-0.063,0.391-0.188c0.552-0.708,1-1.188,1.344-1.438c0.354-0.25,0.802-0.375,1.344-0.375
		c0.5,0,0.945,0.136,1.336,0.406c0.391,0.271,0.586,0.579,0.586,0.922c0,0.396-0.104,0.713-0.312,0.953
		c-0.209,0.24-0.562,0.474-1.062,0.703c-0.656,0.292-1.258,0.742-1.805,1.352c-0.547,0.609-0.82,1.263-0.82,1.961v0.562
		c0,0.146,0.047,0.266,0.141,0.358c0.094,0.095,0.213,0.141,0.359,0.141h3c0.146,0,0.266-0.046,0.359-0.141
		c0.094-0.093,0.141-0.213,0.141-0.358c0-0.198,0.112-0.456,0.336-0.773s0.508-0.575,0.852-0.773
		c0.333-0.188,0.588-0.336,0.766-0.445c0.177-0.109,0.416-0.292,0.718-0.547c0.303-0.255,0.534-0.505,0.695-0.75
		c0.162-0.244,0.308-0.56,0.438-0.945c0.13-0.386,0.196-0.808,0.197-1.266C114.896,69.082,114.605,68.233,114.027,67.452z"/>
</g>
</svg>
