<?xml version="1.0" encoding="utf-8"?>
<!-- Generator: Adobe Illustrator 16.0.0, SVG Export Plug-In . SVG Version: 6.00 Build 0)  -->
<!DOCTYPE svg PUBLIC "-//W3C//DTD SVG 1.1//EN" "http://www.w3.org/Graphics/SVG/1.1/DTD/svg11.dtd">
<svg version="1.1" id="Layer_1" xmlns="http://www.w3.org/2000/svg" xmlns:xlink="http://www.w3.org/1999/xlink" x="0px" y="0px"
	 width="52px" height="52px" viewBox="0 0 52 52" enable-background="new 0 0 52 52" xml:space="preserve">
<g>
	<path fill="#FFFFFF" d="M40.029,27.956c-6.571,0-11.897,5.326-11.897,11.897c0,6.57,5.326,11.896,11.897,11.896
		c6.57,0,11.896-5.327,11.896-11.896C51.926,33.282,46.6,27.956,40.029,27.956z M47.188,37.033l-8.209,8.208
		c-0.344,0.345-0.928,0.319-1.303-0.058L37.393,44.9l-0.006,0.004l-3.598-3.598c-0.344-0.346-0.32-0.929,0.057-1.304l0.521-0.519
		c0.375-0.377,0.959-0.402,1.303-0.058l2.685,2.685l6.959-6.957c0.344-0.344,0.926-0.319,1.303,0.056l0.52,0.519
		C47.51,36.105,47.533,36.688,47.188,37.033z"/>
	<path fill="#FFFFFF" d="M33.764,28.248l-6.466-2.423h-0.012c0.008,0.122,0.012,0.243,0.012,0.367c0,3.294-2.672,5.968-5.967,5.968
		c-3.297,0-5.968-2.674-5.968-5.968c0-0.119,0.005-0.238,0.012-0.355c-0.541,0.173-7.257,2.353-10.573,4.759
		c-2.403,1.745-3.865,3.512-4.404,7.057c-0.125,0.824-0.32,3.315-0.32,3.315s-0.153,1.849,2.025,1.8
		c2.113-0.045,24.011-0.002,25.323,0.002c-0.369-1.156-0.57-2.387-0.572-3.664C26.854,34.302,29.684,30.159,33.764,28.248z"/>
	<path fill="#FFFFFF" d="M21.463,25.825c4.158,0,10.559-8.073,10.559-15.222c0-7.15-4.727-10.668-10.559-10.667
		c-5.83,0-10.557,3.518-10.557,10.667S16.918,25.825,21.463,25.825z M12.933,10.226c0.717-0.939,2.178-1.541,2.178-1.541
		s-0.393,1.146-0.575,1.896c-0.292,1.203,0.301,2.053,0.301,2.053s0.841-1.807,1.567-2.727c0.726-0.921,2.293-1.62,2.293-1.62
		s-1.151,2.134-1.319,3.373c-0.168,1.24,0.399,2.312,0.399,2.312s1.859-2.869,2.771-3.975c0.912-1.107,2.488-2.056,2.488-2.056
		S26.33,9.03,27.773,9.57c1.442,0.541,2.85,0.514,3.381,0.541c-0.982,9.615-6.857,14.655-9.747,14.477
		c-7.199-0.443-9.271-12.22-9.28-12.476C12.119,11.855,12.216,11.165,12.933,10.226z"/>
</g>
</svg>
