<?xml version="1.0" encoding="utf-8"?>
<!-- Generator: Adobe Illustrator 16.0.0, SVG Export Plug-In . SVG Version: 6.00 Build 0)  -->
<!DOCTYPE svg PUBLIC "-//W3C//DTD SVG 1.1//EN" "http://www.w3.org/Graphics/SVG/1.1/DTD/svg11.dtd">
<svg version="1.1" id="Layer_1" xmlns="http://www.w3.org/2000/svg" xmlns:xlink="http://www.w3.org/1999/xlink" x="0px" y="0px"
	 width="79px" height="79.003px" viewBox="0 0 79 79.003" enable-background="new 0 0 79 79.003" xml:space="preserve">
<g>
	<path fill="#FFFFFF" d="M40.935,23.373c0-1.73-1.408-3.145-3.149-3.145c-1.744,0-3.148,1.415-3.148,3.145v20.416h20.416
		c1.731,0,3.147-1.402,3.147-3.147c0-1.742-1.416-3.146-3.147-3.146H40.935V23.373z"/>
	<path fill="#FFFFFF" d="M66.026,16.966l6.981,6.972L79,17.968C79,17.968,73.615,7.4,61.035,0l-5.981,5.984l6.993,6.991
		l-1.529,1.508c-6.408-5.5-14.728-8.839-23.834-8.839C16.425,5.644,0,22.069,0,42.327c0,20.251,16.425,36.676,36.684,36.676
		c20.259,0,36.673-16.425,36.673-36.676c0-9.117-3.339-17.434-8.837-23.843L66.026,16.966z M36.695,67.893
		c-14.042,0-25.477-11.422-25.477-25.461c0-14.053,11.435-25.477,25.477-25.477c14.053,0,25.464,11.423,25.464,25.477
		C62.159,56.471,50.748,67.893,36.695,67.893z"/>
</g>
</svg>
