<svg xmlns="http://www.w3.org/2000/svg" width="52" height="52" viewBox="0 0 52 52"><g fill="#fff"><path d="M40.03 27.956c-6.572 0-11.898 5.326-11.898 11.897 0 6.57 5.326 11.896 11.897 11.896 6.57 0 11.895-5.328 11.895-11.897 0-6.57-5.325-11.897-11.896-11.897zm7.158 9.077l-8.21 8.208c-.343.346-.927.32-1.302-.057l-.283-.283-.006.004-3.598-3.598c-.345-.346-.32-.93.056-1.304l.52-.52c.376-.376.96-.4 1.304-.057l2.685 2.685 6.96-6.957c.343-.344.925-.32 1.302.056l.52.518c.373.377.396.96.05 1.305zM33.764 28.248l-6.466-2.423h-.012c.008.122.012.243.012.367 0 3.294-2.672 5.968-5.967 5.968-3.296 0-5.967-2.674-5.967-5.968 0-.12.005-.238.012-.355-.54.173-7.257 2.353-10.573 4.76C2.4 32.34.937 34.106.398 37.652c-.125.824-.32 3.315-.32 3.315s-.153 1.85 2.025 1.8c2.113-.045 24.01-.002 25.323.002-.37-1.156-.57-2.387-.572-3.664 0-4.804 2.83-8.947 6.91-10.858zM21.463 25.825c4.158 0 10.56-8.073 10.56-15.222 0-7.15-4.728-10.668-10.56-10.667-5.83 0-10.557 3.518-10.557 10.667s6.012 15.222 10.557 15.222zm-8.53-15.6c.717-.938 2.178-1.54 2.178-1.54s-.392 1.146-.574 1.896c-.292 1.204.3 2.054.3 2.054s.842-1.807 1.568-2.727c.726-.92 2.293-1.62 2.293-1.62s-1.15 2.134-1.32 3.373c-.167 1.24.4 2.312.4 2.312s1.86-2.87 2.77-3.975c.913-1.107 2.49-2.056 2.49-2.056s3.293 1.09 4.736 1.63c1.442.54 2.85.514 3.38.54-.98 9.616-6.856 14.656-9.746 14.478-7.2-.443-9.27-12.22-9.28-12.476-.008-.257.09-.947.806-1.886z"/></g></svg>