<svg xmlns="http://www.w3.org/2000/svg" width="26.108" height="19.968" viewBox="0 0 26.108 19.968"><path fill="#fff" d="M25.972 15.987c-.034-.068-.062-.124-.09-.17-.452-.814-1.318-1.817-2.597-3.004l-.026-.028-.015-.012-.015-.014h-.014c-.58-.555-.946-.927-1.1-1.117-.282-.36-.347-.728-.19-1.1.107-.283.515-.875 1.222-1.78.372-.48.666-.866.885-1.157C25.6 5.523 26.28 4.19 26.073 3.61l-.083-.135c-.055-.08-.193-.156-.422-.224-.226-.067-.515-.08-.87-.033l-3.914.027c-.063-.022-.153-.02-.27.007-.12.028-.18.04-.18.04l-.066.035-.054.042c-.047.027-.097.074-.15.142-.055.067-.1.146-.137.237-.427 1.097-.91 2.116-1.452 3.058-.338.562-.646 1.05-.927 1.462-.28.412-.516.716-.705.91-.19.195-.363.352-.52.47-.152.118-.27.167-.353.15l-.23-.055c-.127-.083-.23-.193-.306-.333-.076-.142-.128-.32-.156-.532-.028-.213-.043-.396-.048-.55-.005-.154-.002-.372.008-.654.01-.28.012-.47.012-.57 0-.345.008-.72.022-1.122.012-.403.024-.723.034-.958.008-.237.012-.485.012-.75 0-.262-.016-.468-.046-.617-.032-.15-.08-.294-.144-.435-.062-.14-.156-.25-.278-.327-.122-.077-.274-.138-.456-.184-.48-.107-1.092-.166-1.835-.176-1.687-.018-2.77.09-3.25.328-.19.1-.363.235-.517.407-.16.2-.184.31-.065.327.544.082.93.277 1.155.585l.082.162c.063.118.127.326.19.625.063.298.105.63.123.992.044.662.044 1.228 0 1.7-.046.47-.088.838-.13 1.1-.04.264-.1.477-.183.64-.083.162-.137.262-.164.3-.026.035-.05.057-.067.066-.118.045-.24.068-.367.068s-.28-.063-.46-.19c-.183-.126-.37-.3-.567-.523-.195-.223-.415-.532-.66-.932-.244-.398-.498-.87-.76-1.413L6.7 6.383c-.136-.253-.322-.622-.557-1.108-.237-.484-.445-.953-.626-1.406-.072-.19-.18-.336-.327-.436l-.067-.04c-.046-.037-.12-.076-.218-.117-.1-.04-.204-.07-.313-.088L.87 3.214c-.38 0-.64.087-.774.26l-.054.08C.014 3.603 0 3.674 0 3.774s.027.222.082.367c.544 1.277 1.136 2.51 1.773 3.698.64 1.187 1.195 2.142 1.666 2.868.472.725.952 1.41 1.442 2.053s.813 1.054.97 1.235c.16.18.285.317.375.407l.34.326c.218.217.537.48.958.782s.888.603 1.4.897c.51.294 1.107.534 1.787.72.68.187 1.34.262 1.985.224h1.563c.316-.024.557-.126.72-.298l.055-.068c.036-.055.07-.137.102-.25.03-.112.048-.237.048-.374-.01-.388.02-.74.088-1.052.067-.313.146-.55.232-.71.085-.156.184-.29.292-.4s.187-.173.23-.197c.045-.02.08-.036.11-.045.215-.073.472-.003.766.21.295.213.572.477.83.79.258.31.568.66.93 1.053.364.388.682.68.952.87l.273.163c.182.11.417.208.707.3.29.09.544.113.76.068l3.48-.054c.343 0 .61-.06.802-.173.19-.11.304-.236.34-.37.037-.137.04-.292.007-.464-.03-.17-.062-.29-.092-.36z"/></svg>