<?xml version="1.0" encoding="utf-8"?>
<!-- Generator: Adobe Illustrator 16.0.0, SVG Export Plug-In . SVG Version: 6.00 Build 0)  -->
<!DOCTYPE svg PUBLIC "-//W3C//DTD SVG 1.1//EN" "http://www.w3.org/Graphics/SVG/1.1/DTD/svg11.dtd">
<svg version="1.1" id="Layer_1" xmlns="http://www.w3.org/2000/svg" xmlns:xlink="http://www.w3.org/1999/xlink" x="0px" y="0px"
	 width="93px" height="97px" viewBox="0 0 93 97" enable-background="new 0 0 93 97" xml:space="preserve">
<g>
	<g id="A_A">
		<g>
			<path fill="#939598" d="M48.924,39.249l3.532-2.983h-5.458V8.237c0-4.561-3.77-8.271-8.405-8.271
				c-4.632,0-8.402,3.709-8.402,8.271v48.901h6.353V42.207h0.011v0.024h4.091v14.908h6.352V42.23h5.458L48.924,39.249z
				 M36.544,36.489V7.705c0-1.114,0.92-2.019,2.049-2.019c1.133,0,2.054,0.905,2.054,2.019l-0.001,28.56h-4.091v0.224H36.544z"/>
		</g>
	</g>
	<g id="A_A_copy">
		<g>
			<path fill="#6C8BC7" d="M65.181,39.249l3.531-2.983h-5.459V8.237c0-4.561-3.77-8.271-8.404-8.271
				c-4.633,0-8.401,3.709-8.401,8.271v48.901H52.8V42.207h0.01v0.024h4.09v14.908h6.354V42.23h5.459L65.181,39.249z M52.8,36.489
				V7.705c0-1.114,0.919-2.019,2.049-2.019c1.132,0,2.053,0.905,2.053,2.019l-0.002,28.56h-4.09v0.224H52.8z"/>
		</g>
	</g>
	<g>
		<path fill="#939598" d="M6.057,80.969v-0.596c0.136-0.019,0.279-0.038,0.429-0.058s0.287-0.041,0.408-0.065
			c0.122-0.024,0.221-0.053,0.299-0.087c0.078-0.034,0.116-0.07,0.116-0.109c0-0.048-0.012-0.104-0.036-0.167
			c-0.024-0.062-0.051-0.133-0.08-0.21l-0.641-1.772c-0.039-0.106-0.136-0.181-0.292-0.225s-0.315-0.065-0.48-0.065H3.654
			c-0.311,0-0.5,0.097-0.568,0.29l-0.466,1.481c-0.02,0.049-0.034,0.102-0.043,0.16c-0.01,0.058-0.015,0.121-0.015,0.188
			c0,0.378,0.413,0.566,1.238,0.566v0.668H0.408v-0.668c0.543-0.039,0.946-0.368,1.208-0.987l3.451-8.205l1.354,0.189l3.393,8.509
			c0.039,0.107,0.102,0.194,0.189,0.262c0.087,0.068,0.187,0.121,0.298,0.16c0.112,0.038,0.226,0.07,0.342,0.094
			c0.117,0.024,0.228,0.042,0.335,0.051v0.596H6.057z M4.892,73.49l-1.15,2.773c-0.107,0.232-0.16,0.378-0.16,0.436
			c0,0.078,0.15,0.116,0.452,0.116h1.791c0.233,0,0.349-0.02,0.349-0.058c0-0.049-0.092-0.31-0.276-0.784L4.892,73.49z"/>
		<path fill="#939598" d="M16.001,75.625c0.029-0.029,0.114-0.118,0.255-0.269c0.141-0.15,0.311-0.334,0.51-0.552
			c0.199-0.218,0.412-0.453,0.641-0.704c0.228-0.252,0.437-0.491,0.626-0.72c0.189-0.227,0.347-0.428,0.473-0.603
			c0.126-0.174,0.189-0.295,0.189-0.362c0-0.291-0.345-0.436-1.034-0.436v-0.64h3.902v0.64c-0.33,0-0.636,0.023-0.917,0.072
			c-0.282,0.049-0.52,0.179-0.714,0.392l-2.956,3.238c0.417,0.059,0.779,0.15,1.085,0.276c0.306,0.126,0.57,0.273,0.793,0.442
			c0.223,0.17,0.405,0.352,0.546,0.545s0.255,0.383,0.342,0.566c0.136,0.31,0.245,0.617,0.328,0.922
			c0.082,0.305,0.162,0.579,0.24,0.82c0.078,0.242,0.169,0.438,0.276,0.589c0.107,0.149,0.257,0.225,0.452,0.225
			c0.213,0,0.378-0.223,0.495-0.668l0.48,0.146c0,0.136-0.044,0.293-0.131,0.472c-0.087,0.18-0.216,0.351-0.386,0.516
			s-0.374,0.305-0.611,0.421c-0.238,0.116-0.502,0.175-0.794,0.175c-0.602,0-1.046-0.093-1.332-0.276
			c-0.287-0.184-0.478-0.416-0.575-0.697c-0.204-0.571-0.381-1.089-0.531-1.554c-0.151-0.465-0.311-0.864-0.48-1.198
			c-0.17-0.334-0.364-0.59-0.583-0.77c-0.219-0.179-0.498-0.269-0.837-0.269c-0.194,0-0.311,0.034-0.35,0.102v3.006
			c0,0.291,0.097,0.511,0.292,0.661c0.194,0.15,0.529,0.225,1.004,0.225v0.61h-4.994v-0.61c0.874,0,1.311-0.295,1.311-0.886v-6.563
			c0-0.619-0.471-0.929-1.413-0.929v-0.64h5.053v0.64c-0.835,0-1.252,0.31-1.252,0.929v2.57c0.029,0.097,0.107,0.146,0.233,0.146
			H16.001z"/>
		<path fill="#939598" d="M27.694,80.969v-0.596c0.136-0.019,0.279-0.038,0.429-0.058s0.287-0.041,0.408-0.065
			c0.122-0.024,0.221-0.053,0.299-0.087c0.078-0.034,0.116-0.07,0.116-0.109c0-0.048-0.012-0.104-0.036-0.167
			c-0.024-0.062-0.051-0.133-0.08-0.21l-0.641-1.772c-0.039-0.106-0.136-0.181-0.292-0.225s-0.315-0.065-0.48-0.065h-2.126
			c-0.311,0-0.5,0.097-0.568,0.29l-0.466,1.481c-0.02,0.049-0.034,0.102-0.043,0.16c-0.01,0.058-0.015,0.121-0.015,0.188
			c0,0.378,0.413,0.566,1.238,0.566v0.668h-3.393v-0.668c0.543-0.039,0.946-0.368,1.208-0.987l3.451-8.205l1.354,0.189l3.393,8.509
			c0.039,0.107,0.102,0.194,0.189,0.262c0.087,0.068,0.187,0.121,0.298,0.16c0.112,0.038,0.226,0.07,0.342,0.094
			c0.117,0.024,0.228,0.042,0.335,0.051v0.596H27.694z M26.529,73.49l-1.15,2.773c-0.107,0.232-0.16,0.378-0.16,0.436
			c0,0.078,0.15,0.116,0.452,0.116h1.791c0.233,0,0.349-0.02,0.349-0.058c0-0.049-0.092-0.31-0.276-0.784L26.529,73.49z"/>
		<path fill="#939598" d="M36.328,80.969c-0.427,0-0.791,0.038-1.092,0.116c-0.301,0.077-0.553,0.218-0.757,0.421
			c-0.204,0.203-0.369,0.481-0.495,0.835s-0.223,0.806-0.291,1.358l-0.845-0.073V80.33h0.393c0.194-0.01,0.337-0.034,0.43-0.073
			c0.092-0.038,0.204-0.102,0.335-0.188s0.274-0.247,0.43-0.479c0.155-0.232,0.308-0.52,0.458-0.863
			c0.15-0.344,0.298-0.733,0.444-1.169c0.146-0.437,0.272-0.896,0.379-1.38c0.106-0.484,0.194-0.98,0.262-1.488
			c0.067-0.509,0.102-1.005,0.102-1.488c0-0.813-0.476-1.22-1.427-1.22v-0.64h8.562v0.64c-0.883,0-1.325,0.382-1.325,1.146v6.056
			c0,0.765,0.49,1.147,1.471,1.147h0.248v3.296l-0.844,0.073c-0.078-0.562-0.18-1.021-0.306-1.38
			c-0.126-0.358-0.298-0.637-0.517-0.835s-0.485-0.334-0.801-0.406c-0.315-0.073-0.697-0.109-1.143-0.109H36.328z M37.027,72.706
			c0,0.746-0.046,1.457-0.139,2.135s-0.213,1.314-0.364,1.909c-0.151,0.596-0.328,1.152-0.532,1.67
			c-0.204,0.519-0.417,0.985-0.641,1.401c-0.039,0.078-0.029,0.136,0.029,0.175c0.058,0.038,0.141,0.065,0.248,0.08
			c0.106,0.014,0.221,0.023,0.342,0.028c0.121,0.005,0.23,0.008,0.328,0.008h2.097c0.146,0,0.284-0.005,0.415-0.015
			c0.131-0.01,0.247-0.031,0.349-0.065s0.185-0.082,0.248-0.146c0.063-0.062,0.095-0.147,0.095-0.254v-6.956
			c0-0.106-0.032-0.19-0.095-0.254c-0.063-0.062-0.146-0.111-0.248-0.146c-0.102-0.033-0.218-0.056-0.349-0.065
			c-0.131-0.009-0.27-0.014-0.415-0.014h-0.32c-0.107,0-0.224,0.002-0.35,0.007c-0.126,0.005-0.24,0.024-0.342,0.059
			c-0.102,0.033-0.187,0.084-0.255,0.152C37.061,72.483,37.027,72.58,37.027,72.706z"/>
		<path fill="#939598" d="M44.991,80.969v-0.61c0.874,0,1.311-0.28,1.311-0.842v-6.447c0-0.727-0.471-1.089-1.413-1.089v-0.64h8.358
			l0.116,2.847l-0.888,0.072c-0.088-0.532-0.214-0.941-0.379-1.227c-0.165-0.286-0.364-0.494-0.597-0.625
			c-0.233-0.131-0.5-0.208-0.801-0.232c-0.301-0.023-0.636-0.036-1.005-0.036c-0.32,0-0.567,0.046-0.742,0.138
			s-0.263,0.224-0.263,0.397v2.545c0,0.231,0.111,0.347,0.335,0.347c0.233,0,0.446-0.014,0.641-0.043s0.366-0.095,0.517-0.196
			s0.274-0.254,0.372-0.457c0.097-0.204,0.16-0.479,0.189-0.828h0.844v3.877h-0.844c-0.029-0.329-0.078-0.595-0.146-0.799
			c-0.067-0.203-0.162-0.357-0.283-0.464c-0.122-0.106-0.274-0.18-0.459-0.218c-0.185-0.039-0.407-0.063-0.67-0.073
			c-0.33,0.029-0.495,0.16-0.495,0.393v2.715c0,0.465,0.364,0.697,1.092,0.697c0.593,0,1.065-0.046,1.42-0.138
			s0.644-0.232,0.866-0.421c0.224-0.189,0.403-0.429,0.539-0.719c0.136-0.291,0.276-0.64,0.422-1.046l0.83,0.116l-0.407,3.006
			H44.991z"/>
		<path fill="#939598" d="M63.133,80.969v-0.61c0.845,0,1.268-0.319,1.268-0.958l-0.117-6.07L61.4,80.969H60.09l-3.116-7.595
			l-0.058,5.823c0,0.774,0.476,1.161,1.427,1.161v0.61h-3.626v-0.61c0.438,0,0.772-0.104,1.005-0.312
			c0.233-0.208,0.354-0.53,0.364-0.966l0.116-6.346c0-0.116-0.007-0.221-0.021-0.312s-0.068-0.169-0.16-0.232
			c-0.093-0.062-0.235-0.113-0.43-0.152C55.396,72,55.125,71.98,54.775,71.98v-0.64h3.902l2.811,7.028l2.708-7.028h3.437v0.64
			c-0.292,0-0.524,0.021-0.699,0.064c-0.175,0.044-0.313,0.103-0.415,0.175s-0.167,0.152-0.196,0.239s-0.044,0.18-0.044,0.276
			l0.175,6.563c0.02,0.707,0.451,1.06,1.296,1.06v0.61H63.133z"/>
		<path fill="#939598" d="M77.185,74.042l-4.179,5.431c0,0.591,0.437,0.886,1.311,0.886v0.61h-5.169v-0.61
			c0.98,0,1.471-0.295,1.471-0.886v-6.346c0-0.765-0.49-1.146-1.471-1.146v-0.64h5.169v0.64c-0.874,0-1.311,0.382-1.311,1.146v5.083
			l4.135-5.432c-0.126-0.532-0.587-0.798-1.383-0.798v-0.64h5.14v0.64c-0.884,0-1.325,0.382-1.325,1.146v6.346
			c0,0.591,0.441,0.886,1.325,0.886v0.61h-5.14v-0.61c0.951,0,1.427-0.295,1.427-0.886V74.042z"/>
		<path fill="#939598" d="M88.002,76.685c-0.039-0.067-0.155-0.102-0.35-0.102c-0.34,0-0.611,0.061-0.814,0.182
			c-0.204,0.121-0.384,0.312-0.539,0.574c-0.155,0.261-0.304,0.598-0.444,1.009s-0.318,0.907-0.531,1.488
			c-0.068,0.194-0.146,0.37-0.233,0.53c-0.087,0.159-0.201,0.295-0.342,0.406s-0.313,0.198-0.517,0.262
			c-0.204,0.062-0.457,0.095-0.758,0.095c-0.34,0-0.641-0.059-0.902-0.175s-0.48-0.256-0.655-0.421s-0.306-0.336-0.394-0.516
			c-0.087-0.179-0.131-0.336-0.131-0.472l0.48-0.146c0.059,0.223,0.139,0.39,0.24,0.501c0.103,0.111,0.211,0.167,0.328,0.167
			c0.184,0,0.325-0.072,0.422-0.218c0.097-0.145,0.182-0.336,0.255-0.572c0.073-0.237,0.146-0.503,0.219-0.798
			c0.072-0.295,0.177-0.592,0.312-0.892c0.097-0.223,0.209-0.408,0.335-0.559c0.126-0.149,0.276-0.271,0.451-0.362
			s0.386-0.164,0.634-0.218c0.247-0.053,0.546-0.094,0.896-0.123c-0.884-0.039-1.572-0.267-2.067-0.684
			c-0.495-0.416-0.743-0.988-0.743-1.715c0-0.368,0.063-0.712,0.189-1.032c0.126-0.319,0.318-0.601,0.575-0.843
			s0.575-0.432,0.954-0.567c0.378-0.136,0.824-0.203,1.339-0.203c0.485,0,0.886,0.002,1.201,0.007s0.588,0.013,0.815,0.022
			c0.229,0.01,0.439,0.017,0.634,0.021s0.417,0.007,0.67,0.007h2.286v0.64c-0.903,0-1.354,0.271-1.354,0.812v6.724
			c0,0.562,0.417,0.842,1.252,0.842v0.61h-5.009v-0.61c0.864,0,1.296-0.28,1.296-0.842V76.685z M88.002,72.796
			c0-0.476-0.146-0.714-0.437-0.714h-0.291c-0.224,0-0.433,0.029-0.626,0.087c-0.194,0.059-0.362,0.158-0.503,0.299
			c-0.141,0.142-0.252,0.333-0.335,0.576c-0.082,0.243-0.123,0.549-0.123,0.918c0,0.398,0.041,0.722,0.123,0.97
			c0.083,0.248,0.199,0.439,0.35,0.576c0.15,0.136,0.33,0.228,0.539,0.276s0.444,0.073,0.706,0.073h0.364
			c0.126,0,0.204-0.049,0.232-0.146V72.796z"/>
		<path fill="#6C8BC7" d="M8.656,96.407v-0.596c0.136-0.019,0.279-0.038,0.429-0.058s0.287-0.041,0.408-0.065
			c0.122-0.024,0.221-0.053,0.299-0.087c0.078-0.034,0.116-0.07,0.116-0.109c0-0.048-0.012-0.104-0.036-0.167
			c-0.024-0.062-0.051-0.133-0.08-0.21l-0.641-1.772c-0.039-0.106-0.136-0.181-0.292-0.225s-0.315-0.065-0.48-0.065H6.253
			c-0.311,0-0.5,0.097-0.568,0.29L5.22,94.824c-0.02,0.049-0.034,0.102-0.043,0.16c-0.01,0.058-0.015,0.121-0.015,0.188
			c0,0.378,0.413,0.566,1.238,0.566v0.668H3.007v-0.668c0.543-0.039,0.946-0.368,1.208-0.987l3.451-8.205l1.354,0.189l3.393,8.509
			c0.039,0.107,0.102,0.194,0.189,0.262c0.087,0.068,0.187,0.121,0.298,0.16c0.112,0.038,0.226,0.07,0.342,0.094
			c0.117,0.024,0.228,0.042,0.335,0.051v0.596H8.656z M7.491,88.929l-1.15,2.773c-0.107,0.232-0.16,0.378-0.16,0.436
			c0,0.078,0.15,0.116,0.452,0.116h1.791c0.233,0,0.349-0.02,0.349-0.058c0-0.049-0.092-0.31-0.276-0.784L7.491,88.929z"/>
		<path fill="#6C8BC7" d="M14.262,96.407v-0.61c0.864,0,1.296-0.314,1.296-0.943v-6.68c0-0.504-0.452-0.755-1.354-0.755v-0.64h3.291
			c0.369,0,0.677-0.007,0.924-0.021s0.532-0.021,0.852-0.021c1.281,0,2.218,0.234,2.81,0.704c0.592,0.47,0.888,1.188,0.888,2.156
			c0,0.368-0.065,0.717-0.197,1.046c-0.131,0.329-0.347,0.614-0.648,0.856s-0.689,0.434-1.165,0.573
			c-0.476,0.141-1.058,0.211-1.748,0.211c-0.291,0-0.531-0.01-0.721-0.029c-0.189-0.02-0.371-0.048-0.546-0.087v2.628
			c0,0.32,0.121,0.566,0.364,0.741c0.242,0.174,0.597,0.261,1.062,0.261v0.61H14.262z M17.945,91.427
			c0.194,0.048,0.388,0.082,0.583,0.102c0.194,0.02,0.422,0.028,0.684,0.028c0.301,0,0.537-0.055,0.707-0.167
			c0.169-0.11,0.296-0.259,0.378-0.442s0.133-0.399,0.153-0.646s0.029-0.501,0.029-0.762c0-0.358-0.029-0.671-0.087-0.938
			c-0.058-0.266-0.163-0.486-0.313-0.66c-0.151-0.175-0.357-0.305-0.619-0.393c-0.262-0.087-0.592-0.13-0.99-0.13
			c-0.35,0-0.524,0.218-0.524,0.653V91.427z"/>
		<path fill="#6C8BC7" d="M25.43,96.407v-0.61c1.01,0,1.515-0.406,1.515-1.22v-6.563c0-0.29-0.199-0.436-0.597-0.436
			c-0.301,0-0.561,0.051-0.779,0.152c-0.219,0.102-0.408,0.254-0.568,0.458c-0.16,0.203-0.296,0.457-0.408,0.762
			c-0.112,0.306-0.211,0.661-0.299,1.067l-0.903-0.131l0.408-3.224c0.252,0.039,0.529,0.068,0.83,0.088s0.539,0.028,0.713,0.028
			h5.751c0.213,0,0.476-0.009,0.787-0.028c0.311-0.02,0.592-0.049,0.844-0.088v3.181l-0.844,0.072
			c-0.049-0.765-0.211-1.336-0.488-1.713c-0.277-0.378-0.755-0.566-1.435-0.566c-0.417,0-0.626,0.126-0.626,0.377v6.563
			c0,0.813,0.515,1.22,1.543,1.22v0.61H25.43z"/>
		<path fill="#6C8BC7" d="M33.642,96.407v-0.61c0.874,0,1.311-0.28,1.311-0.842v-6.447c0-0.727-0.471-1.089-1.413-1.089v-0.64h8.358
			l0.117,2.847l-0.888,0.072c-0.087-0.532-0.214-0.941-0.379-1.227c-0.165-0.286-0.364-0.494-0.597-0.625s-0.5-0.208-0.801-0.232
			c-0.301-0.023-0.636-0.036-1.005-0.036c-0.32,0-0.568,0.046-0.743,0.138s-0.262,0.224-0.262,0.397v2.545
			c0,0.231,0.112,0.347,0.335,0.347c0.233,0,0.446-0.014,0.641-0.043s0.367-0.095,0.517-0.196s0.274-0.254,0.371-0.457
			c0.097-0.204,0.16-0.479,0.189-0.828h0.845v3.877h-0.845c-0.029-0.329-0.078-0.595-0.146-0.799
			c-0.068-0.203-0.163-0.357-0.284-0.464c-0.121-0.106-0.274-0.18-0.458-0.218c-0.185-0.039-0.408-0.063-0.67-0.073
			c-0.33,0.029-0.495,0.16-0.495,0.393v2.715c0,0.465,0.364,0.697,1.092,0.697c0.592,0,1.065-0.046,1.419-0.138
			s0.643-0.232,0.867-0.421c0.223-0.189,0.402-0.429,0.539-0.719c0.136-0.291,0.277-0.64,0.422-1.046l0.83,0.116l-0.408,3.006
			H33.642z"/>
		<path fill="#6C8BC7" d="M43.703,96.407v-0.61c0.864,0,1.296-0.314,1.296-0.943v-6.68c0-0.504-0.452-0.755-1.354-0.755v-0.64h3.291
			c0.369,0,0.677-0.007,0.924-0.021c0.248-0.015,0.532-0.021,0.853-0.021c1.28,0,2.218,0.234,2.81,0.704s0.889,1.188,0.889,2.156
			c0,0.368-0.066,0.717-0.197,1.046s-0.346,0.614-0.646,0.856s-0.689,0.434-1.166,0.573c-0.475,0.141-1.059,0.211-1.747,0.211
			c-0.291,0-0.531-0.01-0.721-0.029c-0.188-0.02-0.371-0.048-0.546-0.087v2.628c0,0.32,0.121,0.566,0.364,0.741
			c0.242,0.174,0.597,0.261,1.062,0.261v0.61H43.703z M47.387,91.427c0.194,0.048,0.389,0.082,0.582,0.102
			c0.194,0.02,0.423,0.028,0.685,0.028c0.302,0,0.536-0.055,0.706-0.167c0.17-0.11,0.297-0.259,0.379-0.442s0.133-0.399,0.152-0.646
			s0.029-0.501,0.029-0.762c0-0.358-0.029-0.671-0.088-0.938c-0.057-0.266-0.162-0.486-0.312-0.66
			c-0.15-0.175-0.355-0.305-0.619-0.393c-0.262-0.087-0.592-0.13-0.989-0.13c-0.35,0-0.524,0.218-0.524,0.653V91.427z"/>
		<path fill="#6C8BC7" d="M61.686,89.48l-4.179,5.431c0,0.591,0.437,0.886,1.311,0.886v0.61h-5.169v-0.61
			c0.98,0,1.471-0.295,1.471-0.886v-6.346c0-0.765-0.49-1.146-1.471-1.146v-0.64h5.169v0.64c-0.874,0-1.311,0.382-1.311,1.146v5.083
			l4.135-5.432c-0.126-0.532-0.587-0.798-1.383-0.798v-0.64h5.14v0.64c-0.884,0-1.325,0.382-1.325,1.146v6.346
			c0,0.591,0.441,0.886,1.325,0.886v0.61h-5.14v-0.61c0.951,0,1.427-0.295,1.427-0.886V89.48z"/>
		<path fill="#6C8BC7" d="M69.445,95.913c0.106,0,0.206-0.021,0.299-0.064c0.092-0.044,0.189-0.124,0.291-0.24
			c0.102-0.117,0.216-0.281,0.342-0.495c0.127-0.213,0.277-0.494,0.452-0.844l-3.451-5.92c-0.165-0.311-0.371-0.543-0.619-0.698
			c-0.247-0.155-0.512-0.232-0.793-0.232v-0.64h4.44v0.64h-0.451c-0.165,0-0.301,0.023-0.407,0.072
			c-0.107,0.049-0.137,0.116-0.088,0.203l2.505,4.196c0.271-0.629,0.517-1.197,0.735-1.706c0.218-0.508,0.405-0.941,0.561-1.3
			c0.155-0.357,0.273-0.634,0.356-0.827c0.082-0.193,0.124-0.295,0.124-0.305c0-0.116-0.1-0.201-0.299-0.255
			c-0.199-0.053-0.439-0.079-0.721-0.079v-0.64h3.174v0.64c-0.185,0.028-0.349,0.053-0.495,0.072
			c-0.146,0.02-0.276,0.056-0.393,0.108c-0.116,0.054-0.221,0.136-0.313,0.247c-0.092,0.111-0.177,0.269-0.255,0.472
			c-0.523,1.152-0.976,2.159-1.354,3.021c-0.379,0.862-0.714,1.603-1.005,2.223c-0.291,0.619-0.551,1.127-0.779,1.524
			c-0.228,0.396-0.446,0.711-0.655,0.943s-0.42,0.393-0.633,0.479C69.8,96.596,69.562,96.64,69.3,96.64
			c-0.495,0-0.888-0.114-1.18-0.342c-0.291-0.227-0.437-0.549-0.437-0.965c0-0.232,0.07-0.443,0.211-0.632
			c0.141-0.189,0.366-0.283,0.678-0.283c0.203,0,0.381,0.062,0.531,0.184s0.226,0.325,0.226,0.608c0,0.137-0.027,0.252-0.08,0.345
			c-0.054,0.093-0.119,0.163-0.196,0.212c0.038,0.039,0.092,0.073,0.16,0.103C69.28,95.899,69.358,95.913,69.445,95.913z"/>
		<path fill="#6C8BC7" d="M84.588,96.407v-0.61c0.845,0,1.268-0.319,1.268-0.958l-0.117-6.07l-2.883,7.639h-1.311l-3.116-7.595
			l-0.058,5.823c0,0.774,0.476,1.161,1.427,1.161v0.61h-3.626v-0.61c0.438,0,0.772-0.104,1.005-0.312
			c0.233-0.208,0.354-0.53,0.364-0.966l0.116-6.346c0-0.116-0.007-0.221-0.021-0.312s-0.068-0.169-0.16-0.232
			c-0.093-0.062-0.235-0.113-0.43-0.152c-0.194-0.038-0.466-0.058-0.815-0.058v-0.64h3.902l2.811,7.028l2.708-7.028h3.437v0.64
			c-0.292,0-0.524,0.021-0.699,0.064c-0.175,0.044-0.313,0.103-0.415,0.175s-0.167,0.152-0.196,0.239s-0.044,0.18-0.044,0.276
			l0.175,6.563c0.02,0.707,0.451,1.06,1.296,1.06v0.61H84.588z"/>
	</g>
</g>
<g>
</g>
<g>
</g>
<g>
</g>
<g>
</g>
<g>
</g>
<g>
</g>
</svg>
