<?xml version="1.0" encoding="utf-8"?>
<!-- Generator: Adobe Illustrator 16.0.0, SVG Export Plug-In . SVG Version: 6.00 Build 0)  -->
<!DOCTYPE svg PUBLIC "-//W3C//DTD SVG 1.1//EN" "http://www.w3.org/Graphics/SVG/1.1/DTD/svg11.dtd">
<svg version="1.1" id="Layer_1" xmlns="http://www.w3.org/2000/svg" xmlns:xlink="http://www.w3.org/1999/xlink" x="0px" y="0px"
	 width="13px" height="11.685px" viewBox="248.5 217.158 13 11.685" enable-background="new 248.5 217.158 13 11.685"
	 xml:space="preserve">
<g>
	<path fill="#668FCB" d="M252.263,220.395c0.395,0,0.71-0.315,0.71-0.71v-1.815c0-0.395-0.316-0.711-0.71-0.711
		s-0.71,0.316-0.71,0.711v1.815C251.553,220.079,251.869,220.395,252.263,220.395z"/>
	<path fill="#668FCB" d="M257.737,220.395c0.395,0,0.71-0.315,0.71-0.71v-1.815c0-0.395-0.315-0.711-0.71-0.711
		c-0.396,0-0.711,0.316-0.711,0.711v1.815C257.026,220.079,257.342,220.395,257.737,220.395z"/>
	<path fill="#668FCB" d="M260.921,218.21h-1.315c-0.316,0-0.579,0.237-0.579,0.553s0.263,0.579,0.579,0.579h0.763v2.342h-10.737
		v-2.342h0.763c0.316,0,0.553-0.263,0.553-0.579s-0.237-0.553-0.553-0.553h-1.342c-0.316,0-0.553,0.237-0.553,0.553v9.5
		c0,0.316,0.237,0.579,0.553,0.579h11.868c0.316,0,0.579-0.263,0.579-0.579v-9.5C261.5,218.447,261.237,218.21,260.921,218.21z
		 M260.368,227.684h-10.737v-5.158h10.737V227.684z"/>
	<path fill="#668FCB" d="M254.105,219.342h1.789c0.316,0,0.579-0.263,0.579-0.579s-0.263-0.553-0.579-0.553h-1.789
		c-0.316,0-0.579,0.237-0.579,0.553S253.79,219.342,254.105,219.342z"/>
</g>
</svg>
