<?xml version="1.0" encoding="utf-8"?>
<!-- Generator: Adobe Illustrator 16.0.0, SVG Export Plug-In . SVG Version: 6.00 Build 0)  -->
<!DOCTYPE svg PUBLIC "-//W3C//DTD SVG 1.1//EN" "http://www.w3.org/Graphics/SVG/1.1/DTD/svg11.dtd">
<svg version="1.1" id="Layer_1" xmlns="http://www.w3.org/2000/svg" xmlns:xlink="http://www.w3.org/1999/xlink" x="0px" y="0px"
	 width="11.762px" height="13px" viewBox="0 0 11.762 13" enable-background="new 0 0 11.762 13" xml:space="preserve">
<g>
	<path fill="#668FCB" d="M5.927,7.999C7.564,7.968,8.645,6.445,8.641,4.15L3.163,4.153C3.189,6.538,4.241,8.03,5.927,7.999z"/>
	<path fill="#668FCB" d="M9.699,9.549C9.57,9.334,9.377,9.184,9.161,9.099L7.694,8.435L7.093,7.891L5.901,8.979L4.737,7.881
		l-0.68,0.573L2.642,9.105C2.433,9.192,2.247,9.34,2.122,9.549L0.058,13h5.267l0.568-2.816L6.478,13h5.285L9.699,9.549z
		 M9.268,11.596H8.735v0.532H8.111v-0.532H7.58v-0.624h0.532v-0.532h0.624v0.532h0.532V11.596z"/>
	<path fill="#668FCB" d="M8.667,2.845c0-0.872-0.684-1.583-1.545-1.629c0-0.001,0-0.003,0-0.004C7.122,0.543,6.578,0,5.91,0
		S4.699,0.543,4.699,1.211c0,0.001,0,0.003,0,0.004C3.838,1.262,3.154,1.973,3.154,2.845V3.58h5.513V2.845L8.667,2.845z M5.91,0.525
		c0.378,0,0.686,0.308,0.686,0.686S6.289,1.897,5.91,1.897S5.224,1.59,5.224,1.211S5.532,0.525,5.91,0.525z"/>
</g>
</svg>
