<svg xmlns="http://www.w3.org/2000/svg" width="40" height="35" viewBox="0 0 40 35"><title>Slice 2</title><desc>Created with Sketch.</desc><g fill="#fff"><path d="M8.69 21.546h5.397l4.962 4.963h1.834V8.49H19.05l-4.963 4.964H8.69v8.092m15.42.79l-.42-1.245c1.583-.527 2.647-2.005 2.647-3.676 0-1.67-1.062-3.15-2.646-3.68l.42-1.243c2.116.71 3.54 2.69 3.54 4.924-.002 2.234-1.42 4.213-3.54 4.923M26.268 25.624l-.574-1.18C28.348 23.147 30 20.507 30 17.557c0-2.954-1.65-5.593-4.306-6.888l.574-1.18c3.107 1.517 5.04 4.608 5.04 8.068s-1.933 6.55-5.04 8.066"/></g></svg>