<?xml version="1.0" encoding="utf-8"?>
<!-- Generator: Adobe Illustrator 16.0.0, SVG Export Plug-In . SVG Version: 6.00 Build 0)  -->
<!DOCTYPE svg PUBLIC "-//W3C//DTD SVG 1.1//EN" "http://www.w3.org/Graphics/SVG/1.1/DTD/svg11.dtd">
<svg version="1.1" id="Layer_1" xmlns="http://www.w3.org/2000/svg" xmlns:xlink="http://www.w3.org/1999/xlink" x="0px" y="0px"
	 width="124px" height="23px" viewBox="0 0 124 23" enable-background="new 0 0 124 23" xml:space="preserve">
<path fill="#FFFFFF" d="M64.048,7.78c0-2.273-0.163-2.417-1.825-2.545V4.758h9.094c0.018,0.355,0.119,1.874,0.225,3.041
	l-0.519,0.064c-0.206-1.047-0.438-1.585-0.749-1.921c-0.331-0.35-1.015-0.496-2.282-0.496h-1.572c-0.576,0-0.63,0.042-0.63,0.646
	v4.854h2.096c1.789,0,1.852-0.12,2.058-1.658h0.519v4.033h-0.519c-0.103-0.771-0.164-1.186-0.435-1.416
	c-0.271-0.229-0.727-0.271-1.623-0.271h-2.096v3.655c0,1.189,0.125,1.812,0.524,2.065c0.39,0.243,1.14,0.243,2.114,0.243
	c1.181,0,2.157-0.101,2.617-0.603c0.351-0.377,0.683-1.08,0.997-2.042l0.517,0.065c-0.106,0.582-0.561,2.705-0.726,3.271h-9.82
	V17.81c1.872-0.119,2.035-0.269,2.035-2.538"/>
<path fill="#FFFFFF" d="M88.198,15.275c0,2.266,0.166,2.415,1.868,2.534v0.481h-5.478V17.81c1.701-0.119,1.864-0.269,1.864-2.534
	V7.782c0-2.273-0.163-2.418-1.864-2.545V4.76h5.478v0.477c-1.702,0.126-1.868,0.271-1.868,2.545"/>
<path fill="#FFFFFF" d="M96.836,4.76v0.477c-1.664,0.126-1.832,0.271-1.832,2.545v4.065c0,1.772,0.23,3.104,0.87,4.035
	c0.647,0.918,1.603,1.438,2.991,1.438c1.306,0,2.387-0.558,3.051-1.557c0.688-1.043,0.936-2.877,0.936-4.62v-0.848
	c0-2.181-0.084-3.324-0.17-3.974c-0.098-0.727-0.658-1.022-2.026-1.083V4.76h4.977v0.477c-1.137,0.042-1.68,0.357-1.783,1.083
	c-0.084,0.65-0.164,1.793-0.164,3.974v1.117c0,2.416-0.377,4.119-1.581,5.411c-0.888,0.957-2.386,1.497-3.837,1.497
	c-1.146,0-2.448-0.264-3.409-1.06c-1.096-0.896-1.597-2.309-1.597-4.686V7.782c0-2.273-0.162-2.418-1.905-2.545V4.76"/>
<path fill="#FFFFFF" d="M110.193,4.76l5.029,10.72l4.938-10.72h3.422v0.477c-1.802,0.152-1.93,0.232-1.861,2.545l0.16,7.494
	c0.062,2.323,0.128,2.392,1.953,2.534v0.481h-5.476V17.81c1.739-0.143,1.802-0.211,1.781-2.534l-0.08-8.395h-0.09l-5.08,11.181
	h-0.52l-4.792-10.891h-0.045l-0.205,5.813c-0.083,1.951-0.083,3.101,0,3.748c0.104,0.766,0.6,0.975,1.947,1.077v0.481H106.4V17.81
	c1.16-0.103,1.597-0.312,1.742-1.077c0.124-0.647,0.252-1.891,0.358-3.958l0.226-4.368c0.146-2.795,0-3.017-1.952-3.169V4.76"/>
<path fill="#FFFFFF" d="M50.098,4.76c-0.072,0.957-0.145,2.068-0.224,3.145h0.52c0.249-0.915,0.495-1.498,0.719-1.794
	c0.314-0.394,0.877-0.663,2.724-0.663h0.971v9.828c0,2.267-0.164,2.415-2.11,2.534v0.481h6.059V17.81
	c-2.033-0.119-2.201-0.268-2.201-2.534V5.448h1.391c1.287,0,1.93,0.146,2.285,0.544c0.311,0.328,0.534,0.915,0.749,1.913h0.514
	c-0.072-0.998-0.161-2.259-0.224-3.145"/>
<path fill="#FFFFFF" d="M49.348,17.014c-0.557-0.621-0.994-1.16-1.735-2.264c-0.628-0.914-1.48-2.348-1.854-2.976
	c1.681-0.688,2.741-1.917,2.741-3.643c0-1.205-0.54-2.138-1.37-2.662C46.365,4.948,45.181,4.76,43.85,4.76h-3.448v0.687l1.909,0.005
	c0.236,0.003,0.693,0.003,1.189,0.003c1.553,0,3.132,0.783,3.132,2.968c0,1.02-0.31,2.041-1.202,2.749
	c-0.563,0.458-1.229,0.479-2.082,0.479h-2.946v0.693l2.862-0.004c0.644,0,0.978,0.206,1.313,0.746
	c0.579,0.982,1.455,2.499,2.095,3.432c0.793,1.143,1.52,1.868,3.904,1.931h0.291l0.035-0.386
	C50.162,17.868,49.79,17.532,49.348,17.014"/>
<path fill="#FFFFFF" d="M82.494,17.041c-0.563-0.621-0.994-1.188-1.74-2.291c-0.626-0.914-1.474-2.35-1.854-2.976
	c1.683-0.688,2.746-1.917,2.746-3.645c0-1.207-0.538-2.136-1.375-2.661c-0.763-0.522-1.95-0.711-3.273-0.711h-3.451v0.688l1.9,0.005
	c0.239,0.003,0.708,0.003,1.196,0.003c1.554,0,3.132,0.782,3.132,2.969c0,1.02-0.314,2.041-1.201,2.748
	c-0.564,0.458-1.228,0.479-2.077,0.479h-2.95v0.692l2.863-0.003c0.645,0,0.979,0.206,1.312,0.746
	c0.578,0.982,1.452,2.517,2.095,3.457c0.786,1.148,1.518,1.873,3.9,1.937h0.293l0.043-0.396
	C83.308,17.898,82.931,17.56,82.494,17.041"/>
<path fill="#FFFFFF" d="M36.26,17.81l0.661-0.083c0.77-0.08,0.851-0.306,0.648-0.956c-0.146-0.498-0.748-2.125-1.331-3.622h-4.217
	c-0.205,0.542-0.742,2.165-1.034,3.04c-0.391,1.207-0.21,1.479,0.728,1.562l0.62,0.06v0.481h-4.439V17.81
	c0.181-0.019,0.34-0.037,0.471-0.06c0.93-0.148,1.138-0.454,1.771-2.062l4.183-10.818l0.53-0.184l1.514,3.721
	c0.978,2.642,1.89,5.284,2.698,7.41c0.664,1.746,0.936,1.891,2.218,1.993v0.481H36.26 M32.295,12.357h3.674l-1.824-5.121h-0.043
	L32.295,12.357z"/>
<path fill="#FFFFFF" d="M11.502,0.004c0.767,0.067,1.243,0.19,1.819,0.387c3.449,1.171,5.505,6.966-0.842,10.246
	c-0.037,0.02-0.322,0.153-0.368,0.171c-0.217,0.094-0.445,0.196-0.685,0.294c-3.981,1.723-6.336,2.208-7.407,4.804
	c-1.274,3.486,1.438,7.148,7.546,7.234c-0.77-0.064-1.247-0.184-1.825-0.383c-3.455-1.166-5.521-6.979,0.86-10.265
	c0.044-0.021,0.333-0.154,0.374-0.174c0.206-0.087,0.425-0.176,0.65-0.277c3.984-1.716,6.34-2.195,7.412-4.793
	C20.315,3.761,17.608,0.102,11.502,0.004"/>
<path fill="#FFFFFF" d="M11.3,1.165C9.829,0.38,8.146,0.389,6.743,1.047c-0.487,0.21-2.738,1.277-4.464,3.617
	c-1.357,1.839-2.102,3.952-2.249,6.09c-0.213,2.989,0.694,5.571,2.186,7.645c-1.093-1.61-0.855-4.076,1.081-5.377
	c2.341-1.572,5.494-1.917,7.271-2.564c1.163-0.401,2.177-1.228,2.81-2.405C14.7,5.581,13.769,2.494,11.3,1.165"/>
<path fill="#FFFFFF" d="M20.843,4.748c1.094,1.612,0.858,4.078-1.079,5.381c-2.338,1.562-5.482,1.917-7.258,2.556
	c-1.168,0.403-2.191,1.229-2.821,2.406c-1.324,2.479-0.397,5.564,2.075,6.891c1.473,0.787,3.158,0.78,4.559,0.119
	c0.482-0.209,2.737-1.276,4.465-3.616c1.358-1.839,2.104-3.954,2.25-6.088C23.247,9.401,22.338,6.822,20.843,4.748"/>
</svg>
