<?xml version="1.0" encoding="utf-8"?>
<!-- Generator: Adobe Illustrator 16.0.0, SVG Export Plug-In . SVG Version: 6.00 Build 0)  -->
<!DOCTYPE svg PUBLIC "-//W3C//DTD SVG 1.1//EN" "http://www.w3.org/Graphics/SVG/1.1/DTD/svg11.dtd">
<svg version="1.1" id="Layer_1" xmlns="http://www.w3.org/2000/svg" xmlns:xlink="http://www.w3.org/1999/xlink" x="0px" y="0px"
	 width="113px" height="41px" viewBox="0 0 113 41" enable-background="new 0 0 113 41" xml:space="preserve">
<polyline fill="#FFFFFF" points="82.319,9.957 93.122,9.957 93.122,39.651 93.163,40.095 101.481,40.095 101.481,9.957 
	112.258,9.957 112.258,1.641 82.319,1.641 82.319,9.957 "/>
<path fill="#FFFFFF" d="M66.271,19.603c0.265-0.425,0.494-0.879,0.707-1.315l0.29-0.647c0.521-1.34,0.779-2.747,0.779-4.249
	c0-3.039-1.208-5.959-3.408-8.237c-2.269-2.192-5.188-3.403-8.282-3.403H40.435v38.356h18.307c3.03,0,5.947-1.207,8.229-3.407
	c2.19-2.276,3.396-5.198,3.396-8.228c0-2.957-1.083-5.754-3.032-7.854C67.007,20.23,66.644,19.911,66.271,19.603 M62.126,28.174
	c-0.07,1.107-0.505,2.111-1.216,2.824c-0.601,0.596-1.395,0.998-2.273,1.158l-9.896-0.013v-7.942h9.379
	c1.059,0,2.048,0.407,2.79,1.142C61.682,26.122,62.126,27.139,62.126,28.174z M48.741,17.108V9.314h7.133
	c1.029,0,2.026,0.409,2.735,1.122c0.683,0.682,1.11,1.638,1.198,2.743l-0.079,0.386c0,0.192-0.086,0.529-0.133,0.708l-0.062,0.192
	c-0.056,0.172-0.115,0.365-0.219,0.527c-0.677,1.277-1.823,2.046-3.12,2.116H48.741z"/>
<path fill="#FFFFFF" d="M20.069,9.169c4.131,0,8.009,2.217,10.118,5.79l6.416-5.404C32.849,4.109,26.668,0.86,20.069,0.86
	C9.003,0.86,0,9.864,0,20.931C0,31.996,9.003,41,20.069,41c6.599,0,12.78-3.248,16.534-8.693l-6.416-5.402
	c-2.14,3.622-5.926,5.786-10.118,5.786c-6.485,0-11.763-5.273-11.763-11.759C8.306,14.446,13.584,9.169,20.069,9.169"/>
</svg>
