<?xml version="1.0" encoding="utf-8"?>
<!-- Generator: Adobe Illustrator 16.0.0, SVG Export Plug-In . SVG Version: 6.00 Build 0)  -->
<!DOCTYPE svg PUBLIC "-//W3C//DTD SVG 1.1//EN" "http://www.w3.org/Graphics/SVG/1.1/DTD/svg11.dtd">
<svg version="1.1" id="Layer_1" xmlns="http://www.w3.org/2000/svg" xmlns:xlink="http://www.w3.org/1999/xlink" x="0px" y="0px"
	 width="16px" height="16px" viewBox="0 0 16 16" enable-background="new 0 0 16 16" xml:space="preserve">
<path fill-rule="evenodd" clip-rule="evenodd" fill="#668FCB" d="M1.279,13.859C2.907,13.544,4.224,13,5.062,12.458
	c-0.8-0.969-1.371-2.147-1.371-3.676c0-3.214,2.971-5.829,6.624-5.829c0.706,0,1.386,0.241,2.024,0.422
	C11.315,1.467,9.075,0,6.468,0C2.896,0,0,2.487,0,5.556c0,2.678,0.784,4.074,3.276,5.652C3.027,12.607,1.279,13.859,1.279,13.859z"
	/>
<path fill-rule="evenodd" clip-rule="evenodd" fill="#668FCB" d="M10.531,13.94c0.705,0.771,1.976,1.616,4.265,2.06
	c0,0-1.558-1.116-1.781-2.364c2.226-1.407,2.923-2.652,2.923-5.041c0-2.736-2.584-4.955-5.768-4.955c-3.187,0-5.77,2.218-5.77,4.955
	C4.4,11.388,5.794,13.394,10.531,13.94z"/>
<g>
</g>
<g>
</g>
<g>
</g>
<g>
</g>
<g>
</g>
<g>
</g>
</svg>
