<?xml version="1.0" encoding="utf-8"?>
<!-- Generator: Adobe Illustrator 16.0.0, SVG Export Plug-In . SVG Version: 6.00 Build 0)  -->
<!DOCTYPE svg PUBLIC "-//W3C//DTD SVG 1.1//EN" "http://www.w3.org/Graphics/SVG/1.1/DTD/svg11.dtd">
<svg version="1.1" id="Layer_1" xmlns="http://www.w3.org/2000/svg" xmlns:xlink="http://www.w3.org/1999/xlink" x="0px" y="0px"
	 width="26.108px" height="19.968px" viewBox="0 0 26.108 19.968" enable-background="new 0 0 26.108 19.968" xml:space="preserve">
<path fill="#FFFFFF" d="M25.972,15.987c-0.034-0.068-0.062-0.124-0.09-0.17c-0.452-0.814-1.318-1.817-2.597-3.004l-0.026-0.028
	l-0.014-0.012l-0.015-0.014h-0.014c-0.58-0.554-0.946-0.926-1.1-1.116c-0.282-0.36-0.347-0.728-0.191-1.1
	c0.108-0.283,0.516-0.875,1.223-1.781c0.372-0.48,0.666-0.865,0.885-1.156c1.568-2.083,2.247-3.417,2.039-3.996L25.99,3.475
	c-0.055-0.081-0.193-0.156-0.422-0.224c-0.226-0.068-0.515-0.08-0.869-0.034l-3.915,0.027c-0.063-0.022-0.153-0.02-0.271,0.007
	c-0.118,0.027-0.179,0.04-0.179,0.04l-0.066,0.034l-0.054,0.042c-0.047,0.027-0.097,0.074-0.15,0.142
	c-0.055,0.068-0.099,0.147-0.137,0.238c-0.427,1.097-0.909,2.116-1.452,3.058c-0.338,0.562-0.646,1.05-0.927,1.462
	c-0.279,0.412-0.516,0.716-0.705,0.91c-0.191,0.195-0.363,0.352-0.519,0.47c-0.153,0.118-0.271,0.167-0.354,0.149
	c-0.08-0.019-0.157-0.037-0.23-0.054c-0.127-0.083-0.229-0.193-0.306-0.333c-0.076-0.141-0.128-0.318-0.156-0.531
	c-0.028-0.213-0.043-0.396-0.048-0.55c-0.005-0.154-0.002-0.372,0.008-0.654c0.009-0.28,0.012-0.47,0.012-0.571
	c0-0.344,0.008-0.718,0.022-1.121c0.012-0.403,0.024-0.723,0.034-0.958c0.008-0.237,0.012-0.485,0.012-0.749
	c0-0.263-0.016-0.469-0.046-0.618c-0.032-0.15-0.081-0.294-0.144-0.435c-0.062-0.141-0.156-0.25-0.278-0.327
	c-0.122-0.077-0.274-0.138-0.456-0.184c-0.479-0.108-1.092-0.167-1.835-0.177c-1.686-0.018-2.769,0.091-3.249,0.328
	c-0.19,0.099-0.363,0.235-0.517,0.407C8.632,3.47,8.609,3.579,8.728,3.597c0.544,0.082,0.929,0.277,1.155,0.585l0.082,0.162
	c0.063,0.118,0.127,0.326,0.19,0.625c0.063,0.299,0.105,0.63,0.123,0.993c0.044,0.662,0.044,1.228,0,1.7
	c-0.046,0.471-0.088,0.838-0.129,1.101c-0.04,0.263-0.101,0.476-0.184,0.639C9.882,9.564,9.828,9.664,9.801,9.701
	C9.774,9.737,9.75,9.759,9.733,9.768C9.615,9.813,9.493,9.836,9.366,9.836s-0.28-0.063-0.461-0.189
	C8.723,9.52,8.535,9.345,8.339,9.123C8.145,8.9,7.925,8.591,7.68,8.191c-0.244-0.399-0.498-0.87-0.761-1.414L6.702,6.383
	C6.566,6.13,6.38,5.761,6.145,5.275C5.908,4.791,5.7,4.322,5.519,3.869c-0.071-0.19-0.18-0.335-0.326-0.435l-0.067-0.04
	C5.08,3.357,5.006,3.318,4.908,3.277c-0.1-0.041-0.204-0.07-0.313-0.088L0.87,3.215c-0.38,0-0.639,0.087-0.774,0.259L0.042,3.556
	C0.014,3.602,0,3.673,0,3.773s0.027,0.222,0.082,0.367c0.544,1.277,1.136,2.51,1.773,3.698c0.64,1.187,1.195,2.142,1.666,2.868
	c0.471,0.725,0.951,1.411,1.441,2.053s0.813,1.055,0.971,1.236c0.159,0.181,0.284,0.317,0.374,0.407l0.34,0.326
	c0.218,0.217,0.537,0.479,0.958,0.782s0.888,0.603,1.399,0.897c0.512,0.294,1.108,0.534,1.788,0.72
	c0.679,0.187,1.341,0.262,1.985,0.224h1.563c0.316-0.025,0.557-0.127,0.72-0.299l0.055-0.068c0.036-0.055,0.07-0.137,0.102-0.25
	c0.031-0.112,0.048-0.237,0.048-0.374c-0.009-0.388,0.02-0.741,0.088-1.052c0.067-0.313,0.146-0.549,0.232-0.709
	c0.085-0.157,0.184-0.292,0.292-0.4s0.187-0.174,0.23-0.198c0.045-0.021,0.081-0.037,0.109-0.046
	c0.216-0.073,0.473-0.003,0.767,0.211c0.295,0.212,0.572,0.476,0.831,0.789c0.257,0.311,0.567,0.661,0.93,1.053
	c0.363,0.388,0.681,0.68,0.951,0.871l0.273,0.162c0.182,0.108,0.417,0.207,0.707,0.299c0.289,0.09,0.544,0.113,0.76,0.068
	l3.479-0.054c0.344,0,0.612-0.06,0.803-0.173c0.191-0.112,0.304-0.237,0.34-0.371c0.037-0.137,0.04-0.292,0.007-0.464
	C26.034,16.175,26.002,16.055,25.972,15.987z"/>
<g>
</g>
<g>
</g>
<g>
</g>
<g>
</g>
<g>
</g>
<g>
</g>
</svg>
